<?xml version="1.0" encoding="UTF-8" standalone="no"?>
<!DOCTYPE svg PUBLIC "-//W3C//DTD SVG 1.1//EN"
 "http://www.w3.org/Graphics/SVG/1.1/DTD/svg11.dtd">
<!-- Generated by graphviz version 2.43.0 (0)
 -->
<!-- Title: MayaFlux::Buffers::TextureBuffer Pages: 1 -->
<svg width="314pt" height="1714pt"
 viewBox="0.00 0.00 314.00 1714.00" xmlns="http://www.w3.org/2000/svg" xmlns:xlink="http://www.w3.org/1999/xlink">
<g id="graph0" class="graph" transform="scale(1 1) rotate(0) translate(4 1710)">
<title>MayaFlux::Buffers::TextureBuffer</title>
<!-- Node1 -->
<g id="Node000001" class="node">
<title>Node1</title>
<g id="a_Node000001"><a xlink:title="A hybrid buffer managing both a textured quad geometry and its pixel data.">
<polygon fill="#999999" stroke="transparent" points="227,-819 81,-819 81,-347 227,-347 227,-819"/>
<text text-anchor="start" x="106.5" y="-807" font-family="Helvetica,sans-Serif" font-size="10.00">MayaFlux::Buffers::</text>
<text text-anchor="start" x="121" y="-796" font-family="Helvetica,sans-Serif" font-size="10.00">TextureBuffer</text>
<text text-anchor="start" x="87.5" y="-781" font-family="Helvetica,sans-Serif" font-size="10.00">&#45;</text>
<text text-anchor="start" x="98" y="-781" font-family="Helvetica,sans-Serif" font-size="10.00">m_format</text>
<text text-anchor="start" x="87.5" y="-766" font-family="Helvetica,sans-Serif" font-size="10.00">&#45;</text>
<text text-anchor="start" x="98" y="-766" font-family="Helvetica,sans-Serif" font-size="10.00">m_geometry_dirty</text>
<text text-anchor="start" x="87.5" y="-751" font-family="Helvetica,sans-Serif" font-size="10.00">&#45;</text>
<text text-anchor="start" x="98" y="-751" font-family="Helvetica,sans-Serif" font-size="10.00">m_gpu_texture</text>
<text text-anchor="start" x="87.5" y="-736" font-family="Helvetica,sans-Serif" font-size="10.00">&#45;</text>
<text text-anchor="start" x="98" y="-736" font-family="Helvetica,sans-Serif" font-size="10.00">m_height</text>
<text text-anchor="start" x="87.5" y="-721" font-family="Helvetica,sans-Serif" font-size="10.00">&#45;</text>
<text text-anchor="start" x="98" y="-721" font-family="Helvetica,sans-Serif" font-size="10.00">m_pixel_data</text>
<text text-anchor="start" x="87.5" y="-706" font-family="Helvetica,sans-Serif" font-size="10.00">&#45;</text>
<text text-anchor="start" x="98" y="-706" font-family="Helvetica,sans-Serif" font-size="10.00">m_position</text>
<text text-anchor="start" x="87.5" y="-691" font-family="Helvetica,sans-Serif" font-size="10.00">&#45;</text>
<text text-anchor="start" x="98" y="-691" font-family="Helvetica,sans-Serif" font-size="10.00">m_rotation</text>
<text text-anchor="start" x="87.5" y="-676" font-family="Helvetica,sans-Serif" font-size="10.00">&#45;</text>
<text text-anchor="start" x="98" y="-676" font-family="Helvetica,sans-Serif" font-size="10.00">m_scale</text>
<text text-anchor="start" x="87.5" y="-661" font-family="Helvetica,sans-Serif" font-size="10.00">&#45;</text>
<text text-anchor="start" x="98" y="-661" font-family="Helvetica,sans-Serif" font-size="10.00">m_texture_dirty</text>
<text text-anchor="start" x="87.5" y="-646" font-family="Helvetica,sans-Serif" font-size="10.00">&#45;</text>
<text text-anchor="start" x="98" y="-646" font-family="Helvetica,sans-Serif" font-size="10.00">m_texture_processor</text>
<text text-anchor="start" x="87.5" y="-631" font-family="Helvetica,sans-Serif" font-size="10.00">&#45;</text>
<text text-anchor="start" x="98" y="-631" font-family="Helvetica,sans-Serif" font-size="10.00">m_uses_custom_vertices</text>
<text text-anchor="start" x="87.5" y="-616" font-family="Helvetica,sans-Serif" font-size="10.00">&#45;</text>
<text text-anchor="start" x="98" y="-616" font-family="Helvetica,sans-Serif" font-size="10.00">m_vertex_bytes</text>
<text text-anchor="start" x="87.5" y="-601" font-family="Helvetica,sans-Serif" font-size="10.00">&#45;</text>
<text text-anchor="start" x="98" y="-601" font-family="Helvetica,sans-Serif" font-size="10.00">m_width</text>
<text text-anchor="start" x="85" y="-586" font-family="Helvetica,sans-Serif" font-size="10.00">+</text>
<text text-anchor="start" x="98" y="-586" font-family="Helvetica,sans-Serif" font-size="10.00">clear_dirty_flag()</text>
<text text-anchor="start" x="85" y="-571" font-family="Helvetica,sans-Serif" font-size="10.00">+</text>
<text text-anchor="start" x="98" y="-571" font-family="Helvetica,sans-Serif" font-size="10.00">get_format()</text>
<text text-anchor="start" x="85" y="-556" font-family="Helvetica,sans-Serif" font-size="10.00">+</text>
<text text-anchor="start" x="98" y="-556" font-family="Helvetica,sans-Serif" font-size="10.00">get_gpu_texture()</text>
<text text-anchor="start" x="85" y="-541" font-family="Helvetica,sans-Serif" font-size="10.00">+</text>
<text text-anchor="start" x="98" y="-541" font-family="Helvetica,sans-Serif" font-size="10.00">get_gpu_texture()</text>
<text text-anchor="start" x="85" y="-526" font-family="Helvetica,sans-Serif" font-size="10.00">+</text>
<text text-anchor="start" x="98" y="-526" font-family="Helvetica,sans-Serif" font-size="10.00">get_height()</text>
<text text-anchor="start" x="85" y="-511" font-family="Helvetica,sans-Serif" font-size="10.00">+</text>
<text text-anchor="start" x="98" y="-511" font-family="Helvetica,sans-Serif" font-size="10.00">get_pixel_data()</text>
<text text-anchor="start" x="85" y="-496" font-family="Helvetica,sans-Serif" font-size="10.00">+</text>
<text text-anchor="start" x="98" y="-496" font-family="Helvetica,sans-Serif" font-size="10.00">get_pixel_data_mutable()</text>
<text text-anchor="start" x="85" y="-481" font-family="Helvetica,sans-Serif" font-size="10.00">+</text>
<text text-anchor="start" x="98" y="-481" font-family="Helvetica,sans-Serif" font-size="10.00">get_position()</text>
<text text-anchor="start" x="85" y="-466" font-family="Helvetica,sans-Serif" font-size="10.00">+</text>
<text text-anchor="start" x="98" y="-466" font-family="Helvetica,sans-Serif" font-size="10.00">get_rotation()</text>
<text text-anchor="start" x="85" y="-451" font-family="Helvetica,sans-Serif" font-size="10.00">+</text>
<text text-anchor="start" x="98" y="-451" font-family="Helvetica,sans-Serif" font-size="10.00">get_scale()</text>
<text text-anchor="start" x="98" y="-436" font-family="Helvetica,sans-Serif" font-size="10.00">and 19 more...</text>
<text text-anchor="start" x="85" y="-421" font-family="Helvetica,sans-Serif" font-size="10.00">#</text>
<text text-anchor="start" x="98" y="-421" font-family="Helvetica,sans-Serif" font-size="10.00">set_texture_processor()</text>
<text text-anchor="start" x="87.5" y="-406" font-family="Helvetica,sans-Serif" font-size="10.00">&#45;</text>
<text text-anchor="start" x="98" y="-406" font-family="Helvetica,sans-Serif" font-size="10.00">generate_default_quad()</text>
<text text-anchor="start" x="87.5" y="-391" font-family="Helvetica,sans-Serif" font-size="10.00">&#45;</text>
<text text-anchor="start" x="98" y="-391" font-family="Helvetica,sans-Serif" font-size="10.00">generate_quad_with</text>
<text text-anchor="start" x="98" y="-380" font-family="Helvetica,sans-Serif" font-size="10.00">_transform()</text>
<text text-anchor="start" x="87.5" y="-365" font-family="Helvetica,sans-Serif" font-size="10.00">&#45;</text>
<text text-anchor="start" x="98" y="-365" font-family="Helvetica,sans-Serif" font-size="10.00">calculate_quad_vertex</text>
<text text-anchor="start" x="98" y="-354" font-family="Helvetica,sans-Serif" font-size="10.00">_size()</text>
<polygon fill="#666666" stroke="#666666" points="81,-791 81,-791 227,-791 227,-791 81,-791"/>
<polygon fill="#666666" stroke="#666666" points="81,-596 81,-596 96,-596 96,-596 81,-596"/>
<polygon fill="#666666" stroke="#666666" points="96,-596 96,-596 227,-596 227,-596 96,-596"/>
<polygon fill="none" stroke="#666666" points="81,-347 81,-819 227,-819 227,-347 81,-347"/>
</a>
</g>
</g>
<!-- Node5 -->
<g id="Node000005" class="node">
<title>Node5</title>
<g id="a_Node000005"><a xlink:href="classMayaFlux_1_1Buffers_1_1TextBuffer.html" target="_top" xlink:title="TextureBuffer specialization for CPU&#45;composited glyph textures.">
<polygon fill="white" stroke="transparent" points="146,-311 0,-311 0,0 146,0 146,-311"/>
<text text-anchor="start" x="25.5" y="-298.5" font-family="Helvetica,sans-Serif" font-size="10.00">MayaFlux::Buffers::</text>
<text text-anchor="start" x="48" y="-287.5" font-family="Helvetica,sans-Serif" font-size="10.00">TextBuffer</text>
<text text-anchor="start" x="6.5" y="-272.5" font-family="Helvetica,sans-Serif" font-size="10.00">&#45;</text>
<text text-anchor="start" x="17" y="-272.5" font-family="Helvetica,sans-Serif" font-size="10.00">m_accumulated_text</text>
<text text-anchor="start" x="6.5" y="-257.5" font-family="Helvetica,sans-Serif" font-size="10.00">&#45;</text>
<text text-anchor="start" x="17" y="-257.5" font-family="Helvetica,sans-Serif" font-size="10.00">m_budget_height</text>
<text text-anchor="start" x="6.5" y="-242.5" font-family="Helvetica,sans-Serif" font-size="10.00">&#45;</text>
<text text-anchor="start" x="17" y="-242.5" font-family="Helvetica,sans-Serif" font-size="10.00">m_budget_width</text>
<text text-anchor="start" x="6.5" y="-227.5" font-family="Helvetica,sans-Serif" font-size="10.00">&#45;</text>
<text text-anchor="start" x="17" y="-227.5" font-family="Helvetica,sans-Serif" font-size="10.00">m_cursor_x</text>
<text text-anchor="start" x="6.5" y="-212.5" font-family="Helvetica,sans-Serif" font-size="10.00">&#45;</text>
<text text-anchor="start" x="17" y="-212.5" font-family="Helvetica,sans-Serif" font-size="10.00">m_cursor_y</text>
<text text-anchor="start" x="6.5" y="-197.5" font-family="Helvetica,sans-Serif" font-size="10.00">&#45;</text>
<text text-anchor="start" x="17" y="-197.5" font-family="Helvetica,sans-Serif" font-size="10.00">m_render_bounds_h</text>
<text text-anchor="start" x="6.5" y="-182.5" font-family="Helvetica,sans-Serif" font-size="10.00">&#45;</text>
<text text-anchor="start" x="17" y="-182.5" font-family="Helvetica,sans-Serif" font-size="10.00">m_render_bounds_w</text>
<text text-anchor="start" x="4" y="-167.5" font-family="Helvetica,sans-Serif" font-size="10.00">+</text>
<text text-anchor="start" x="17" y="-167.5" font-family="Helvetica,sans-Serif" font-size="10.00">append_accumulated</text>
<text text-anchor="start" x="17" y="-156.5" font-family="Helvetica,sans-Serif" font-size="10.00">_text()</text>
<text text-anchor="start" x="4" y="-141.5" font-family="Helvetica,sans-Serif" font-size="10.00">+</text>
<text text-anchor="start" x="17" y="-141.5" font-family="Helvetica,sans-Serif" font-size="10.00">clear_accumulated_text()</text>
<text text-anchor="start" x="4" y="-126.5" font-family="Helvetica,sans-Serif" font-size="10.00">+</text>
<text text-anchor="start" x="17" y="-126.5" font-family="Helvetica,sans-Serif" font-size="10.00">get_accumulated_text()</text>
<text text-anchor="start" x="4" y="-111.5" font-family="Helvetica,sans-Serif" font-size="10.00">+</text>
<text text-anchor="start" x="17" y="-111.5" font-family="Helvetica,sans-Serif" font-size="10.00">get_budget_height()</text>
<text text-anchor="start" x="4" y="-96.5" font-family="Helvetica,sans-Serif" font-size="10.00">+</text>
<text text-anchor="start" x="17" y="-96.5" font-family="Helvetica,sans-Serif" font-size="10.00">get_budget_width()</text>
<text text-anchor="start" x="4" y="-81.5" font-family="Helvetica,sans-Serif" font-size="10.00">+</text>
<text text-anchor="start" x="17" y="-81.5" font-family="Helvetica,sans-Serif" font-size="10.00">get_cursor_x()</text>
<text text-anchor="start" x="4" y="-66.5" font-family="Helvetica,sans-Serif" font-size="10.00">+</text>
<text text-anchor="start" x="17" y="-66.5" font-family="Helvetica,sans-Serif" font-size="10.00">get_cursor_x()</text>
<text text-anchor="start" x="4" y="-51.5" font-family="Helvetica,sans-Serif" font-size="10.00">+</text>
<text text-anchor="start" x="17" y="-51.5" font-family="Helvetica,sans-Serif" font-size="10.00">get_cursor_y()</text>
<text text-anchor="start" x="4" y="-36.5" font-family="Helvetica,sans-Serif" font-size="10.00">+</text>
<text text-anchor="start" x="17" y="-36.5" font-family="Helvetica,sans-Serif" font-size="10.00">get_cursor_y()</text>
<text text-anchor="start" x="4" y="-21.5" font-family="Helvetica,sans-Serif" font-size="10.00">+</text>
<text text-anchor="start" x="17" y="-21.5" font-family="Helvetica,sans-Serif" font-size="10.00">get_render_bounds_h()</text>
<text text-anchor="start" x="17" y="-6.5" font-family="Helvetica,sans-Serif" font-size="10.00">and 8 more...</text>
<polygon fill="#666666" stroke="#666666" points="0,-282.5 0,-282.5 146,-282.5 146,-282.5 0,-282.5"/>
<polygon fill="#666666" stroke="#666666" points="0,-177.5 0,-177.5 15,-177.5 15,-177.5 0,-177.5"/>
<polygon fill="#666666" stroke="#666666" points="15,-177.5 15,-177.5 146,-177.5 146,-177.5 15,-177.5"/>
<polygon fill="none" stroke="#666666" points="0,0 0,-311 146,-311 146,0 0,0"/>
</a>
</g>
</g>
<!-- Node1&#45;&gt;Node5 -->
<g id="edge4_Node000001_Node000005" class="edge">
<title>Node1&#45;&gt;Node5</title>
<g id="a_edge4_Node000001_Node000005"><a xlink:title=" ">
<path fill="none" stroke="#63b8ff" d="M107.36,-337.02C105.71,-328.34 104.07,-319.73 102.46,-311.26"/>
<polygon fill="none" stroke="#63b8ff" points="103.93,-337.68 109.24,-346.85 110.8,-336.37 103.93,-337.68"/>
</a>
</g>
</g>
<!-- Node6 -->
<g id="Node000006" class="node">
<title>Node6</title>
<g id="a_Node000006"><a xlink:href="classMayaFlux_1_1Buffers_1_1VideoContainerBuffer.html" target="_top" xlink:title="TextureBuffer implementation backed by a VideoStreamContainer.">
<polygon fill="white" stroke="transparent" points="306,-230.5 164,-230.5 164,-80.5 306,-80.5 306,-230.5"/>
<text text-anchor="start" x="182.5" y="-218.5" font-family="Helvetica,sans-Serif" font-size="10.00">MayaFlux::Buffers::</text>
<text text-anchor="start" x="182.5" y="-207.5" font-family="Helvetica,sans-Serif" font-size="10.00">VideoContainerBuffer</text>
<text text-anchor="start" x="170.5" y="-192.5" font-family="Helvetica,sans-Serif" font-size="10.00">&#45;</text>
<text text-anchor="start" x="181" y="-192.5" font-family="Helvetica,sans-Serif" font-size="10.00">m_container</text>
<text text-anchor="start" x="170.5" y="-177.5" font-family="Helvetica,sans-Serif" font-size="10.00">&#45;</text>
<text text-anchor="start" x="181" y="-177.5" font-family="Helvetica,sans-Serif" font-size="10.00">m_video_reader</text>
<text text-anchor="start" x="168" y="-162.5" font-family="Helvetica,sans-Serif" font-size="10.00">+</text>
<text text-anchor="start" x="181" y="-162.5" font-family="Helvetica,sans-Serif" font-size="10.00">get_container()</text>
<text text-anchor="start" x="168" y="-147.5" font-family="Helvetica,sans-Serif" font-size="10.00">+</text>
<text text-anchor="start" x="181" y="-147.5" font-family="Helvetica,sans-Serif" font-size="10.00">get_video_reader()</text>
<text text-anchor="start" x="168" y="-132.5" font-family="Helvetica,sans-Serif" font-size="10.00">+</text>
<text text-anchor="start" x="181" y="-132.5" font-family="Helvetica,sans-Serif" font-size="10.00">set_container()</text>
<text text-anchor="start" x="168" y="-117.5" font-family="Helvetica,sans-Serif" font-size="10.00">+</text>
<text text-anchor="start" x="181" y="-117.5" font-family="Helvetica,sans-Serif" font-size="10.00">setup_processors()</text>
<text text-anchor="start" x="168" y="-102.5" font-family="Helvetica,sans-Serif" font-size="10.00">+</text>
<text text-anchor="start" x="181" y="-102.5" font-family="Helvetica,sans-Serif" font-size="10.00">VideoContainerBuffer()</text>
<text text-anchor="start" x="168" y="-87.5" font-family="Helvetica,sans-Serif" font-size="10.00">+</text>
<text text-anchor="start" x="181" y="-87.5" font-family="Helvetica,sans-Serif" font-size="10.00">~VideoContainerBuffer()</text>
<polygon fill="#666666" stroke="#666666" points="164,-202.5 164,-202.5 306,-202.5 306,-202.5 164,-202.5"/>
<polygon fill="#666666" stroke="#666666" points="164,-172.5 164,-172.5 179,-172.5 179,-172.5 164,-172.5"/>
<polygon fill="#666666" stroke="#666666" points="179,-172.5 179,-172.5 306,-172.5 306,-172.5 179,-172.5"/>
<polygon fill="none" stroke="#666666" points="164,-80.5 164,-230.5 306,-230.5 306,-80.5 164,-80.5"/>
</a>
</g>
</g>
<!-- Node1&#45;&gt;Node6 -->
<g id="edge5_Node000001_Node000006" class="edge">
<title>Node1&#45;&gt;Node6</title>
<g id="a_edge5_Node000001_Node000006"><a xlink:title=" ">
<path fill="none" stroke="#63b8ff" d="M200.64,-337.01C207.98,-298.41 215.06,-261.27 220.85,-230.81"/>
<polygon fill="none" stroke="#63b8ff" points="197.2,-336.37 198.76,-346.85 204.07,-337.68 197.2,-336.37"/>
</a>
</g>
</g>
<!-- Node2 -->
<g id="Node000002" class="node">
<title>Node2</title>
<g id="a_Node000002"><a xlink:href="classMayaFlux_1_1Buffers_1_1VKBuffer.html" target="_top" xlink:title="Vulkan&#45;backed buffer wrapper used in processing chains.">
<polygon fill="white" stroke="transparent" points="235.5,-1364 72.5,-1364 72.5,-855 235.5,-855 235.5,-1364"/>
<text text-anchor="start" x="107" y="-1351.5" font-family="Helvetica,sans-Serif" font-size="10.00">MayaFlux::Buffers::</text>
<text text-anchor="start" x="133" y="-1340.5" font-family="Helvetica,sans-Serif" font-size="10.00">VKBuffer</text>
<text text-anchor="start" x="77" y="-1325.5" font-family="Helvetica,sans-Serif" font-size="10.00">#</text>
<text text-anchor="start" x="90" y="-1325.5" font-family="Helvetica,sans-Serif" font-size="10.00">m_render_config</text>
<text text-anchor="start" x="77" y="-1310.5" font-family="Helvetica,sans-Serif" font-size="10.00">#</text>
<text text-anchor="start" x="90" y="-1310.5" font-family="Helvetica,sans-Serif" font-size="10.00">m_render_config_dirty</text>
<text text-anchor="start" x="77" y="-1295.5" font-family="Helvetica,sans-Serif" font-size="10.00">#</text>
<text text-anchor="start" x="90" y="-1295.5" font-family="Helvetica,sans-Serif" font-size="10.00">m_render_processor</text>
<text text-anchor="start" x="79.5" y="-1280.5" font-family="Helvetica,sans-Serif" font-size="10.00">&#45;</text>
<text text-anchor="start" x="90" y="-1280.5" font-family="Helvetica,sans-Serif" font-size="10.00">m_default_processor</text>
<text text-anchor="start" x="79.5" y="-1265.5" font-family="Helvetica,sans-Serif" font-size="10.00">&#45;</text>
<text text-anchor="start" x="90" y="-1265.5" font-family="Helvetica,sans-Serif" font-size="10.00">m_dimensions</text>
<text text-anchor="start" x="79.5" y="-1250.5" font-family="Helvetica,sans-Serif" font-size="10.00">&#45;</text>
<text text-anchor="start" x="90" y="-1250.5" font-family="Helvetica,sans-Serif" font-size="10.00">m_dirty_ranges</text>
<text text-anchor="start" x="79.5" y="-1235.5" font-family="Helvetica,sans-Serif" font-size="10.00">&#45;</text>
<text text-anchor="start" x="90" y="-1235.5" font-family="Helvetica,sans-Serif" font-size="10.00">m_engine_context</text>
<text text-anchor="start" x="79.5" y="-1220.5" font-family="Helvetica,sans-Serif" font-size="10.00">&#45;</text>
<text text-anchor="start" x="90" y="-1220.5" font-family="Helvetica,sans-Serif" font-size="10.00">m_has_data</text>
<text text-anchor="start" x="79.5" y="-1205.5" font-family="Helvetica,sans-Serif" font-size="10.00">&#45;</text>
<text text-anchor="start" x="90" y="-1205.5" font-family="Helvetica,sans-Serif" font-size="10.00">m_internal_usage</text>
<text text-anchor="start" x="79.5" y="-1190.5" font-family="Helvetica,sans-Serif" font-size="10.00">&#45;</text>
<text text-anchor="start" x="90" y="-1190.5" font-family="Helvetica,sans-Serif" font-size="10.00">m_invalid_ranges</text>
<text text-anchor="start" x="79.5" y="-1175.5" font-family="Helvetica,sans-Serif" font-size="10.00">&#45;</text>
<text text-anchor="start" x="90" y="-1175.5" font-family="Helvetica,sans-Serif" font-size="10.00">m_is_processing</text>
<text text-anchor="start" x="79.5" y="-1160.5" font-family="Helvetica,sans-Serif" font-size="10.00">&#45;</text>
<text text-anchor="start" x="90" y="-1160.5" font-family="Helvetica,sans-Serif" font-size="10.00">m_modality</text>
<text text-anchor="start" x="79.5" y="-1145.5" font-family="Helvetica,sans-Serif" font-size="10.00">&#45;</text>
<text text-anchor="start" x="90" y="-1145.5" font-family="Helvetica,sans-Serif" font-size="10.00">m_needs_depth</text>
<text text-anchor="start" x="90" y="-1130.5" font-family="Helvetica,sans-Serif" font-size="10.00">and 11 more...</text>
<text text-anchor="start" x="77" y="-1115.5" font-family="Helvetica,sans-Serif" font-size="10.00">+</text>
<text text-anchor="start" x="90" y="-1115.5" font-family="Helvetica,sans-Serif" font-size="10.00">clear()</text>
<text text-anchor="start" x="77" y="-1100.5" font-family="Helvetica,sans-Serif" font-size="10.00">+</text>
<text text-anchor="start" x="90" y="-1100.5" font-family="Helvetica,sans-Serif" font-size="10.00">clear_pipeline_commands()</text>
<text text-anchor="start" x="77" y="-1085.5" font-family="Helvetica,sans-Serif" font-size="10.00">+</text>
<text text-anchor="start" x="90" y="-1085.5" font-family="Helvetica,sans-Serif" font-size="10.00">clear_vertex_layout()</text>
<text text-anchor="start" x="77" y="-1070.5" font-family="Helvetica,sans-Serif" font-size="10.00">+</text>
<text text-anchor="start" x="90" y="-1070.5" font-family="Helvetica,sans-Serif" font-size="10.00">clone_to()</text>
<text text-anchor="start" x="77" y="-1055.5" font-family="Helvetica,sans-Serif" font-size="10.00">+</text>
<text text-anchor="start" x="90" y="-1055.5" font-family="Helvetica,sans-Serif" font-size="10.00">clone_to()</text>
<text text-anchor="start" x="77" y="-1040.5" font-family="Helvetica,sans-Serif" font-size="10.00">+</text>
<text text-anchor="start" x="90" y="-1040.5" font-family="Helvetica,sans-Serif" font-size="10.00">enforce_default_processing()</text>
<text text-anchor="start" x="77" y="-1025.5" font-family="Helvetica,sans-Serif" font-size="10.00">+</text>
<text text-anchor="start" x="90" y="-1025.5" font-family="Helvetica,sans-Serif" font-size="10.00">force_internal_usage()</text>
<text text-anchor="start" x="77" y="-1010.5" font-family="Helvetica,sans-Serif" font-size="10.00">+</text>
<text text-anchor="start" x="90" y="-1010.5" font-family="Helvetica,sans-Serif" font-size="10.00">get_and_clear_dirty</text>
<text text-anchor="start" x="90" y="-999.5" font-family="Helvetica,sans-Serif" font-size="10.00">_ranges()</text>
<text text-anchor="start" x="77" y="-984.5" font-family="Helvetica,sans-Serif" font-size="10.00">+</text>
<text text-anchor="start" x="90" y="-984.5" font-family="Helvetica,sans-Serif" font-size="10.00">get_and_clear_invalid</text>
<text text-anchor="start" x="90" y="-973.5" font-family="Helvetica,sans-Serif" font-size="10.00">_ranges()</text>
<text text-anchor="start" x="77" y="-958.5" font-family="Helvetica,sans-Serif" font-size="10.00">+</text>
<text text-anchor="start" x="90" y="-958.5" font-family="Helvetica,sans-Serif" font-size="10.00">get_buffer()</text>
<text text-anchor="start" x="90" y="-943.5" font-family="Helvetica,sans-Serif" font-size="10.00">and 66 more...</text>
<text text-anchor="start" x="77" y="-928.5" font-family="Helvetica,sans-Serif" font-size="10.00">#</text>
<text text-anchor="start" x="90" y="-928.5" font-family="Helvetica,sans-Serif" font-size="10.00">apply_render_config()</text>
<text text-anchor="start" x="77" y="-913.5" font-family="Helvetica,sans-Serif" font-size="10.00">#</text>
<text text-anchor="start" x="90" y="-913.5" font-family="Helvetica,sans-Serif" font-size="10.00">apply_render_config()</text>
<text text-anchor="start" x="77" y="-898.5" font-family="Helvetica,sans-Serif" font-size="10.00">#</text>
<text text-anchor="start" x="90" y="-898.5" font-family="Helvetica,sans-Serif" font-size="10.00">set_default_render</text>
<text text-anchor="start" x="90" y="-887.5" font-family="Helvetica,sans-Serif" font-size="10.00">_config()</text>
<text text-anchor="start" x="79.5" y="-872.5" font-family="Helvetica,sans-Serif" font-size="10.00">&#45;</text>
<text text-anchor="start" x="90" y="-872.5" font-family="Helvetica,sans-Serif" font-size="10.00">infer_dimensions_from</text>
<text text-anchor="start" x="90" y="-861.5" font-family="Helvetica,sans-Serif" font-size="10.00">_data()</text>
<polygon fill="#666666" stroke="#666666" points="73,-1335.5 73,-1335.5 236,-1335.5 236,-1335.5 73,-1335.5"/>
<polygon fill="#666666" stroke="#666666" points="73,-1125.5 73,-1125.5 88,-1125.5 88,-1125.5 73,-1125.5"/>
<polygon fill="#666666" stroke="#666666" points="88,-1125.5 88,-1125.5 236,-1125.5 236,-1125.5 88,-1125.5"/>
<polygon fill="none" stroke="#666666" points="72.5,-855 72.5,-1364 235.5,-1364 235.5,-855 72.5,-855"/>
</a>
</g>
</g>
<!-- Node2&#45;&gt;Node1 -->
<g id="edge1_Node000001_Node000002" class="edge">
<title>Node2&#45;&gt;Node1</title>
<g id="a_edge1_Node000001_Node000002"><a xlink:title=" ">
<path fill="none" stroke="#63b8ff" d="M154,-844.66C154,-836.1 154,-827.55 154,-819.04"/>
<polygon fill="none" stroke="#63b8ff" points="150.5,-844.7 154,-854.7 157.5,-844.7 150.5,-844.7"/>
</a>
</g>
</g>
<!-- Node3 -->
<g id="Node000003" class="node">
<title>Node3</title>
<g id="a_Node000003"><a xlink:href="classMayaFlux_1_1Buffers_1_1Buffer.html" target="_top" xlink:title="Backend&#45;agnostic interface for sequential data storage and transformation.">
<polygon fill="white" stroke="transparent" points="235.5,-1610 72.5,-1610 72.5,-1400 235.5,-1400 235.5,-1610"/>
<text text-anchor="start" x="107" y="-1598" font-family="Helvetica,sans-Serif" font-size="10.00">MayaFlux::Buffers::</text>
<text text-anchor="start" x="139.5" y="-1587" font-family="Helvetica,sans-Serif" font-size="10.00">Buffer</text>
<text text-anchor="start" x="152.5" y="-1572" font-family="Helvetica,sans-Serif" font-size="10.00"> </text>
<text text-anchor="start" x="77" y="-1557" font-family="Helvetica,sans-Serif" font-size="10.00">+</text>
<text text-anchor="start" x="90" y="-1557" font-family="Helvetica,sans-Serif" font-size="10.00">clear()</text>
<text text-anchor="start" x="77" y="-1542" font-family="Helvetica,sans-Serif" font-size="10.00">+</text>
<text text-anchor="start" x="90" y="-1542" font-family="Helvetica,sans-Serif" font-size="10.00">clone_to()</text>
<text text-anchor="start" x="77" y="-1527" font-family="Helvetica,sans-Serif" font-size="10.00">+</text>
<text text-anchor="start" x="90" y="-1527" font-family="Helvetica,sans-Serif" font-size="10.00">enforce_default_processing()</text>
<text text-anchor="start" x="77" y="-1512" font-family="Helvetica,sans-Serif" font-size="10.00">+</text>
<text text-anchor="start" x="90" y="-1512" font-family="Helvetica,sans-Serif" font-size="10.00">force_internal_usage()</text>
<text text-anchor="start" x="77" y="-1497" font-family="Helvetica,sans-Serif" font-size="10.00">+</text>
<text text-anchor="start" x="90" y="-1497" font-family="Helvetica,sans-Serif" font-size="10.00">get_default_processor()</text>
<text text-anchor="start" x="77" y="-1482" font-family="Helvetica,sans-Serif" font-size="10.00">+</text>
<text text-anchor="start" x="90" y="-1482" font-family="Helvetica,sans-Serif" font-size="10.00">get_processing_chain()</text>
<text text-anchor="start" x="77" y="-1467" font-family="Helvetica,sans-Serif" font-size="10.00">+</text>
<text text-anchor="start" x="90" y="-1467" font-family="Helvetica,sans-Serif" font-size="10.00">has_data_for_cycle()</text>
<text text-anchor="start" x="77" y="-1452" font-family="Helvetica,sans-Serif" font-size="10.00">+</text>
<text text-anchor="start" x="90" y="-1452" font-family="Helvetica,sans-Serif" font-size="10.00">is_internal_only()</text>
<text text-anchor="start" x="77" y="-1437" font-family="Helvetica,sans-Serif" font-size="10.00">+</text>
<text text-anchor="start" x="90" y="-1437" font-family="Helvetica,sans-Serif" font-size="10.00">is_processing()</text>
<text text-anchor="start" x="77" y="-1422" font-family="Helvetica,sans-Serif" font-size="10.00">+</text>
<text text-anchor="start" x="90" y="-1422" font-family="Helvetica,sans-Serif" font-size="10.00">mark_for_processing()</text>
<text text-anchor="start" x="90" y="-1407" font-family="Helvetica,sans-Serif" font-size="10.00">and 9 more...</text>
<polygon fill="#666666" stroke="#666666" points="73,-1582 73,-1582 236,-1582 236,-1582 73,-1582"/>
<polygon fill="#666666" stroke="#666666" points="73,-1567 73,-1567 236,-1567 236,-1567 73,-1567"/>
<polygon fill="none" stroke="#666666" points="72.5,-1400 72.5,-1610 235.5,-1610 235.5,-1400 72.5,-1400"/>
</a>
</g>
</g>
<!-- Node3&#45;&gt;Node2 -->
<g id="edge2_Node000002_Node000003" class="edge">
<title>Node3&#45;&gt;Node2</title>
<g id="a_edge2_Node000002_Node000003"><a xlink:title=" ">
<path fill="none" stroke="#63b8ff" d="M154,-1389.84C154,-1381.54 154,-1373 154,-1364.29"/>
<polygon fill="none" stroke="#63b8ff" points="150.5,-1389.84 154,-1399.84 157.5,-1389.84 150.5,-1389.84"/>
</a>
</g>
</g>
<!-- Node4 -->
<g id="Node000004" class="node">
<title>Node4</title>
<g id="a_Node000004"><a xlink:title=" ">
<polygon fill="white" stroke="transparent" points="211,-1706 97,-1706 97,-1646 211,-1646 211,-1706"/>
<text text-anchor="start" x="102" y="-1694" font-family="Helvetica,sans-Serif" font-size="10.00">std::enable_shared</text>
<text text-anchor="start" x="102" y="-1683" font-family="Helvetica,sans-Serif" font-size="10.00">_from_this&lt; Buffer &gt;</text>
<text text-anchor="start" x="152" y="-1668" font-family="Helvetica,sans-Serif" font-size="10.00"> </text>
<text text-anchor="start" x="152" y="-1653" font-family="Helvetica,sans-Serif" font-size="10.00"> </text>
<polygon fill="#666666" stroke="#666666" points="97,-1678 97,-1678 211,-1678 211,-1678 97,-1678"/>
<polygon fill="#666666" stroke="#666666" points="97,-1663 97,-1663 211,-1663 211,-1663 97,-1663"/>
<polygon fill="none" stroke="#666666" points="97,-1646 97,-1706 211,-1706 211,-1646 97,-1646"/>
</a>
</g>
</g>
<!-- Node4&#45;&gt;Node3 -->
<g id="edge3_Node000003_Node000004" class="edge">
<title>Node4&#45;&gt;Node3</title>
<g id="a_edge3_Node000003_Node000004"><a xlink:title=" ">
<path fill="none" stroke="#63b8ff" d="M154,-1635.94C154,-1627.96 154,-1619.21 154,-1610.15"/>
<polygon fill="none" stroke="#63b8ff" points="150.5,-1635.95 154,-1645.95 157.5,-1635.95 150.5,-1635.95"/>
</a>
</g>
</g>
</g>
</svg>
