<?xml version="1.0" encoding="UTF-8" standalone="no"?>
<!DOCTYPE svg PUBLIC "-//W3C//DTD SVG 1.1//EN"
 "http://www.w3.org/Graphics/SVG/1.1/DTD/svg11.dtd">
<!-- Generated by graphviz version 2.43.0 (0)
 -->
<!-- Title: MayaFlux::Nodes::Generator::Sine Pages: 1 -->
<!--zoomable 1522 -->

<svg id="main" version="1.1" xmlns="http://www.w3.org/2000/svg" xmlns:xlink="http://www.w3.org/1999/xlink" xml:space="preserve" onload="init(evt)">
<style type="text/css"><![CDATA[
.node, .edge {opacity: 0.7;}
.node.selected, .edge.selected {opacity: 1;}
.edge:hover path { stroke: red; }
.edge:hover polygon { stroke: red; fill: red; }
]]></style>

<defs>
  <circle id="rim" cx="0" cy="0" r="7"/>
  <circle id="rim2" cx="0" cy="0" r="3.5"/>
  <g id="zoomPlus">
    <use xlink:href="#rim" fill="#404040"><set attributeName="fill" to="#808080" begin="zoomplus.mouseover" end="zoomplus.mouseout"/></use>
    <path d="M-4,0h8M0,-4v8" fill="none" stroke="white" stroke-width="1.5" pointer-events="none"/>
  </g>
  <g id="zoomMin">
    <use xlink:href="#rim" fill="#404040"><set attributeName="fill" to="#808080" begin="zoomminus.mouseover" end="zoomminus.mouseout"/></use>
    <path d="M-4,0h8" fill="none" stroke="white" stroke-width="1.5" pointer-events="none"/>
  </g>
  <g id="arrowUp" transform="translate(30 24)">
    <use xlink:href="#rim"/>
    <path pointer-events="none" fill="none" stroke="white" stroke-width="1.5" d="M0,-3.0v7 M-2.5,-0.5L0,-3.0L2.5,-0.5"/>
  </g>
  <g id="arrowRight" transform="rotate(90) translate(36 -43)">
    <use xlink:href="#rim"/>
    <path pointer-events="none" fill="none" stroke="white" stroke-width="1.5" d="M0,-3.0v7 M-2.5,-0.5L0,-3.0L2.5,-0.5"/>
  </g>
  <g id="arrowDown" transform="rotate(180) translate(-30 -48)">
    <use xlink:href="#rim"/>
    <path pointer-events="none" fill="none" stroke="white" stroke-width="1.5" d="M0,-3.0v7 M-2.5,-0.5L0,-3.0L2.5,-0.5"/>
  </g>
  <g id="arrowLeft" transform="rotate(270) translate(-36 17)">
    <use xlink:href="#rim"/>
    <path pointer-events="none" fill="none" stroke="white" stroke-width="1.5" d="M0,-3.0v7 M-2.5,-0.5L0,-3.0L2.5,-0.5"/>
  </g>
  <g id="resetDef">
    <use xlink:href="#rim2" fill="#404040"><set attributeName="fill" to="#808080" begin="reset.mouseover" end="reset.mouseout"/></use>
  </g>
</defs>
<script type="application/ecmascript">
var viewWidth = 516;
var viewHeight = 1522;
var sectionId = 'dynsection-1';
</script>
<script type="application/ecmascript" xlink:href="svg.min.js"/>
<svg id="graph" class="graph">
<g id="viewport">
<title>MayaFlux::Nodes::Generator::Sine</title>
<!-- Node1 -->
<g id="Node000001" class="node">
<title>Node1</title>
<g id="a_Node000001"><a xlink:title="Sinusoidal oscillator generator node.">
<polygon fill="#999999" stroke="transparent" points="338.5,-345 184.5,-345 184.5,0 338.5,0 338.5,-345"/>
<text text-anchor="start" x="191.5" y="-332.5" font-family="Helvetica,sans-Serif" font-size="10.00">MayaFlux::Nodes::Generator</text>
<text text-anchor="start" x="247.5" y="-321.5" font-family="Helvetica,sans-Serif" font-size="10.00">::Sine</text>
<text text-anchor="start" x="191" y="-306.5" font-family="Helvetica,sans-Serif" font-size="10.00">&#45;</text>
<text text-anchor="start" x="201.5" y="-306.5" font-family="Helvetica,sans-Serif" font-size="10.00">m_amplitude_modulator</text>
<text text-anchor="start" x="191" y="-291.5" font-family="Helvetica,sans-Serif" font-size="10.00">&#45;</text>
<text text-anchor="start" x="201.5" y="-291.5" font-family="Helvetica,sans-Serif" font-size="10.00">m_frequency_modulator</text>
<text text-anchor="start" x="191" y="-276.5" font-family="Helvetica,sans-Serif" font-size="10.00">&#45;</text>
<text text-anchor="start" x="201.5" y="-276.5" font-family="Helvetica,sans-Serif" font-size="10.00">m_offset</text>
<text text-anchor="start" x="191" y="-261.5" font-family="Helvetica,sans-Serif" font-size="10.00">&#45;</text>
<text text-anchor="start" x="201.5" y="-261.5" font-family="Helvetica,sans-Serif" font-size="10.00">m_phase_inc</text>
<text text-anchor="start" x="191" y="-246.5" font-family="Helvetica,sans-Serif" font-size="10.00">&#45;</text>
<text text-anchor="start" x="201.5" y="-246.5" font-family="Helvetica,sans-Serif" font-size="10.00">m_saved_frequency</text>
<text text-anchor="start" x="191" y="-231.5" font-family="Helvetica,sans-Serif" font-size="10.00">&#45;</text>
<text text-anchor="start" x="201.5" y="-231.5" font-family="Helvetica,sans-Serif" font-size="10.00">m_saved_last_output</text>
<text text-anchor="start" x="191" y="-216.5" font-family="Helvetica,sans-Serif" font-size="10.00">&#45;</text>
<text text-anchor="start" x="201.5" y="-216.5" font-family="Helvetica,sans-Serif" font-size="10.00">m_saved_offset</text>
<text text-anchor="start" x="191" y="-201.5" font-family="Helvetica,sans-Serif" font-size="10.00">&#45;</text>
<text text-anchor="start" x="201.5" y="-201.5" font-family="Helvetica,sans-Serif" font-size="10.00">m_saved_phase</text>
<text text-anchor="start" x="191" y="-186.5" font-family="Helvetica,sans-Serif" font-size="10.00">&#45;</text>
<text text-anchor="start" x="201.5" y="-186.5" font-family="Helvetica,sans-Serif" font-size="10.00">m_saved_phase_inc</text>
<text text-anchor="start" x="188.5" y="-171.5" font-family="Helvetica,sans-Serif" font-size="10.00">+</text>
<text text-anchor="start" x="201.5" y="-171.5" font-family="Helvetica,sans-Serif" font-size="10.00">clear_modulators()</text>
<text text-anchor="start" x="188.5" y="-156.5" font-family="Helvetica,sans-Serif" font-size="10.00">+</text>
<text text-anchor="start" x="201.5" y="-156.5" font-family="Helvetica,sans-Serif" font-size="10.00">get_frequency()</text>
<text text-anchor="start" x="188.5" y="-141.5" font-family="Helvetica,sans-Serif" font-size="10.00">+</text>
<text text-anchor="start" x="201.5" y="-141.5" font-family="Helvetica,sans-Serif" font-size="10.00">get_modulators()</text>
<text text-anchor="start" x="188.5" y="-126.5" font-family="Helvetica,sans-Serif" font-size="10.00">+</text>
<text text-anchor="start" x="201.5" y="-126.5" font-family="Helvetica,sans-Serif" font-size="10.00">process_batch()</text>
<text text-anchor="start" x="188.5" y="-111.5" font-family="Helvetica,sans-Serif" font-size="10.00">+</text>
<text text-anchor="start" x="201.5" y="-111.5" font-family="Helvetica,sans-Serif" font-size="10.00">process_sample()</text>
<text text-anchor="start" x="188.5" y="-96.5" font-family="Helvetica,sans-Serif" font-size="10.00">+</text>
<text text-anchor="start" x="201.5" y="-96.5" font-family="Helvetica,sans-Serif" font-size="10.00">reset()</text>
<text text-anchor="start" x="188.5" y="-81.5" font-family="Helvetica,sans-Serif" font-size="10.00">+</text>
<text text-anchor="start" x="201.5" y="-81.5" font-family="Helvetica,sans-Serif" font-size="10.00">restore_state()</text>
<text text-anchor="start" x="188.5" y="-66.5" font-family="Helvetica,sans-Serif" font-size="10.00">+</text>
<text text-anchor="start" x="201.5" y="-66.5" font-family="Helvetica,sans-Serif" font-size="10.00">save_state()</text>
<text text-anchor="start" x="188.5" y="-51.5" font-family="Helvetica,sans-Serif" font-size="10.00">+</text>
<text text-anchor="start" x="201.5" y="-51.5" font-family="Helvetica,sans-Serif" font-size="10.00">set_amplitude_modulator()</text>
<text text-anchor="start" x="188.5" y="-36.5" font-family="Helvetica,sans-Serif" font-size="10.00">+</text>
<text text-anchor="start" x="201.5" y="-36.5" font-family="Helvetica,sans-Serif" font-size="10.00">set_frequency()</text>
<text text-anchor="start" x="201.5" y="-21.5" font-family="Helvetica,sans-Serif" font-size="10.00">and 7 more...</text>
<text text-anchor="start" x="191" y="-6.5" font-family="Helvetica,sans-Serif" font-size="10.00">&#45;</text>
<text text-anchor="start" x="201.5" y="-6.5" font-family="Helvetica,sans-Serif" font-size="10.00">update_phase_increment()</text>
<polygon fill="#666666" stroke="#666666" points="184.5,-316.5 184.5,-316.5 338.5,-316.5 338.5,-316.5 184.5,-316.5"/>
<polygon fill="#666666" stroke="#666666" points="184.5,-181.5 184.5,-181.5 199.5,-181.5 199.5,-181.5 184.5,-181.5"/>
<polygon fill="#666666" stroke="#666666" points="199.5,-181.5 199.5,-181.5 338.5,-181.5 338.5,-181.5 199.5,-181.5"/>
<polygon fill="none" stroke="#666666" points="184.5,0 184.5,-345 338.5,-345 338.5,0 184.5,0"/>
</a>
</g>
</g>
<!-- Node2 -->
<g id="Node000002" class="node">
<title>Node2</title>
<g id="a_Node000002"><a xlink:href="classMayaFlux_1_1Nodes_1_1Generator_1_1Generator.html" target="_top" xlink:title="Base class for all signal and pattern generators in Maya Flux.">
<polygon fill="white" stroke="transparent" points="336.5,-607 186.5,-607 186.5,-382 336.5,-382 336.5,-607"/>
<text text-anchor="start" x="191.5" y="-594.5" font-family="Helvetica,sans-Serif" font-size="10.00">MayaFlux::Nodes::Generator</text>
<text text-anchor="start" x="234" y="-583.5" font-family="Helvetica,sans-Serif" font-size="10.00">::Generator</text>
<text text-anchor="start" x="200.5" y="-568.5" font-family="Helvetica,sans-Serif" font-size="10.00">#</text>
<text text-anchor="start" x="223.5" y="-568.5" font-family="Helvetica,sans-Serif" font-size="10.00">m_amplitude</text>
<text text-anchor="start" x="200.5" y="-553.5" font-family="Helvetica,sans-Serif" font-size="10.00">#</text>
<text text-anchor="start" x="223.5" y="-553.5" font-family="Helvetica,sans-Serif" font-size="10.00">m_frequency</text>
<text text-anchor="start" x="200.5" y="-538.5" font-family="Helvetica,sans-Serif" font-size="10.00">#</text>
<text text-anchor="start" x="223.5" y="-538.5" font-family="Helvetica,sans-Serif" font-size="10.00">m_phase</text>
<text text-anchor="start" x="200.5" y="-523.5" font-family="Helvetica,sans-Serif" font-size="10.00">+</text>
<text text-anchor="start" x="223.5" y="-523.5" font-family="Helvetica,sans-Serif" font-size="10.00">get_amplitude()</text>
<text text-anchor="start" x="200.5" y="-508.5" font-family="Helvetica,sans-Serif" font-size="10.00">+</text>
<text text-anchor="start" x="223.5" y="-508.5" font-family="Helvetica,sans-Serif" font-size="10.00">get_frequency()</text>
<text text-anchor="start" x="200.5" y="-493.5" font-family="Helvetica,sans-Serif" font-size="10.00">+</text>
<text text-anchor="start" x="223.5" y="-493.5" font-family="Helvetica,sans-Serif" font-size="10.00">get_last_context()</text>
<text text-anchor="start" x="200.5" y="-478.5" font-family="Helvetica,sans-Serif" font-size="10.00">+</text>
<text text-anchor="start" x="223.5" y="-478.5" font-family="Helvetica,sans-Serif" font-size="10.00">on_tick()</text>
<text text-anchor="start" x="200.5" y="-463.5" font-family="Helvetica,sans-Serif" font-size="10.00">+</text>
<text text-anchor="start" x="223.5" y="-463.5" font-family="Helvetica,sans-Serif" font-size="10.00">on_tick_if()</text>
<text text-anchor="start" x="200.5" y="-448.5" font-family="Helvetica,sans-Serif" font-size="10.00">+</text>
<text text-anchor="start" x="223.5" y="-448.5" font-family="Helvetica,sans-Serif" font-size="10.00">set_amplitude()</text>
<text text-anchor="start" x="200.5" y="-433.5" font-family="Helvetica,sans-Serif" font-size="10.00">+</text>
<text text-anchor="start" x="223.5" y="-433.5" font-family="Helvetica,sans-Serif" font-size="10.00">set_frequency()</text>
<text text-anchor="start" x="200.5" y="-418.5" font-family="Helvetica,sans-Serif" font-size="10.00">+</text>
<text text-anchor="start" x="223.5" y="-418.5" font-family="Helvetica,sans-Serif" font-size="10.00">update_context()</text>
<text text-anchor="start" x="200.5" y="-403.5" font-family="Helvetica,sans-Serif" font-size="10.00">+</text>
<text text-anchor="start" x="223.5" y="-403.5" font-family="Helvetica,sans-Serif" font-size="10.00">~Generator()</text>
<text text-anchor="start" x="200.5" y="-388.5" font-family="Helvetica,sans-Serif" font-size="10.00">#</text>
<text text-anchor="start" x="223.5" y="-388.5" font-family="Helvetica,sans-Serif" font-size="10.00">notify_tick()</text>
<polygon fill="#666666" stroke="#666666" points="186.5,-578.5 186.5,-578.5 336.5,-578.5 336.5,-578.5 186.5,-578.5"/>
<polygon fill="#666666" stroke="#666666" points="186.5,-533.5 186.5,-533.5 221.5,-533.5 221.5,-533.5 186.5,-533.5"/>
<polygon fill="#666666" stroke="#666666" points="221.5,-533.5 221.5,-533.5 336.5,-533.5 336.5,-533.5 221.5,-533.5"/>
<polygon fill="none" stroke="#666666" points="186.5,-382 186.5,-607 336.5,-607 336.5,-382 186.5,-382"/>
</a>
</g>
</g>
<!-- Node2&#45;&gt;Node1 -->
<g id="edge1_Node000001_Node000002" class="edge">
<title>Node2&#45;&gt;Node1</title>
<g id="a_edge1_Node000001_Node000002"><a xlink:title=" ">
<path fill="none" stroke="#63b8ff" d="M261.5,-371.46C261.5,-362.77 261.5,-353.92 261.5,-345.02"/>
<polygon fill="none" stroke="#63b8ff" points="258,-371.58 261.5,-381.58 265,-371.58 258,-371.58"/>
</a>
</g>
</g>
<!-- Node3 -->
<g id="Node000003" class="node">
<title>Node3</title>
<g id="a_Node000003"><a xlink:href="classMayaFlux_1_1Nodes_1_1Node.html" target="_top" xlink:title="Base interface for all computational processing nodes.">
<polygon fill="white" stroke="transparent" points="164.5,-1201 16.5,-1201 16.5,-654 164.5,-654 164.5,-1201"/>
<text text-anchor="start" x="32" y="-1188.5" font-family="Helvetica,sans-Serif" font-size="10.00">MayaFlux::Nodes::Node</text>
<text text-anchor="start" x="20.5" y="-1173.5" font-family="Helvetica,sans-Serif" font-size="10.00">+</text>
<text text-anchor="start" x="33.5" y="-1173.5" font-family="Helvetica,sans-Serif" font-size="10.00">m_fire_events_during</text>
<text text-anchor="start" x="33.5" y="-1162.5" font-family="Helvetica,sans-Serif" font-size="10.00">_snapshot</text>
<text text-anchor="start" x="20.5" y="-1147.5" font-family="Helvetica,sans-Serif" font-size="10.00">+</text>
<text text-anchor="start" x="33.5" y="-1147.5" font-family="Helvetica,sans-Serif" font-size="10.00">m_modulator_count</text>
<text text-anchor="start" x="20.5" y="-1132.5" font-family="Helvetica,sans-Serif" font-size="10.00">+</text>
<text text-anchor="start" x="33.5" y="-1132.5" font-family="Helvetica,sans-Serif" font-size="10.00">m_state</text>
<text text-anchor="start" x="20.5" y="-1117.5" font-family="Helvetica,sans-Serif" font-size="10.00">#</text>
<text text-anchor="start" x="33.5" y="-1117.5" font-family="Helvetica,sans-Serif" font-size="10.00">m_callbacks</text>
<text text-anchor="start" x="20.5" y="-1102.5" font-family="Helvetica,sans-Serif" font-size="10.00">#</text>
<text text-anchor="start" x="33.5" y="-1102.5" font-family="Helvetica,sans-Serif" font-size="10.00">m_conditional_callbacks</text>
<text text-anchor="start" x="20.5" y="-1087.5" font-family="Helvetica,sans-Serif" font-size="10.00">#</text>
<text text-anchor="start" x="33.5" y="-1087.5" font-family="Helvetica,sans-Serif" font-size="10.00">m_frame_rate</text>
<text text-anchor="start" x="20.5" y="-1072.5" font-family="Helvetica,sans-Serif" font-size="10.00">#</text>
<text text-anchor="start" x="33.5" y="-1072.5" font-family="Helvetica,sans-Serif" font-size="10.00">m_gpu_compatible</text>
<text text-anchor="start" x="20.5" y="-1057.5" font-family="Helvetica,sans-Serif" font-size="10.00">#</text>
<text text-anchor="start" x="33.5" y="-1057.5" font-family="Helvetica,sans-Serif" font-size="10.00">m_gpu_data_buffer</text>
<text text-anchor="start" x="20.5" y="-1042.5" font-family="Helvetica,sans-Serif" font-size="10.00">#</text>
<text text-anchor="start" x="33.5" y="-1042.5" font-family="Helvetica,sans-Serif" font-size="10.00">m_last_output</text>
<text text-anchor="start" x="20.5" y="-1027.5" font-family="Helvetica,sans-Serif" font-size="10.00">#</text>
<text text-anchor="start" x="33.5" y="-1027.5" font-family="Helvetica,sans-Serif" font-size="10.00">m_networked_node</text>
<text text-anchor="start" x="20.5" y="-1012.5" font-family="Helvetica,sans-Serif" font-size="10.00">#</text>
<text text-anchor="start" x="33.5" y="-1012.5" font-family="Helvetica,sans-Serif" font-size="10.00">m_node_capability</text>
<text text-anchor="start" x="20.5" y="-997.5" font-family="Helvetica,sans-Serif" font-size="10.00">#</text>
<text text-anchor="start" x="33.5" y="-997.5" font-family="Helvetica,sans-Serif" font-size="10.00">m_sample_rate</text>
<text text-anchor="start" x="20.5" y="-982.5" font-family="Helvetica,sans-Serif" font-size="10.00">#</text>
<text text-anchor="start" x="33.5" y="-982.5" font-family="Helvetica,sans-Serif" font-size="10.00">m_state_saved</text>
<text text-anchor="start" x="20.5" y="-967.5" font-family="Helvetica,sans-Serif" font-size="10.00">#</text>
<text text-anchor="start" x="33.5" y="-967.5" font-family="Helvetica,sans-Serif" font-size="10.00">m_timing_rate</text>
<text text-anchor="start" x="23" y="-952.5" font-family="Helvetica,sans-Serif" font-size="10.00">&#45;</text>
<text text-anchor="start" x="33.5" y="-952.5" font-family="Helvetica,sans-Serif" font-size="10.00">m_active_channels_mask</text>
<text text-anchor="start" x="23" y="-937.5" font-family="Helvetica,sans-Serif" font-size="10.00">&#45;</text>
<text text-anchor="start" x="33.5" y="-937.5" font-family="Helvetica,sans-Serif" font-size="10.00">m_buffer_count</text>
<text text-anchor="start" x="23" y="-922.5" font-family="Helvetica,sans-Serif" font-size="10.00">&#45;</text>
<text text-anchor="start" x="33.5" y="-922.5" font-family="Helvetica,sans-Serif" font-size="10.00">m_buffer_processed</text>
<text text-anchor="start" x="23" y="-907.5" font-family="Helvetica,sans-Serif" font-size="10.00">&#45;</text>
<text text-anchor="start" x="33.5" y="-907.5" font-family="Helvetica,sans-Serif" font-size="10.00">m_buffer_reset_count</text>
<text text-anchor="start" x="23" y="-892.5" font-family="Helvetica,sans-Serif" font-size="10.00">&#45;</text>
<text text-anchor="start" x="33.5" y="-892.5" font-family="Helvetica,sans-Serif" font-size="10.00">m_pending_reset_mask</text>
<text text-anchor="start" x="23" y="-877.5" font-family="Helvetica,sans-Serif" font-size="10.00">&#45;</text>
<text text-anchor="start" x="33.5" y="-877.5" font-family="Helvetica,sans-Serif" font-size="10.00">m_snapshot_context_id</text>
<text text-anchor="start" x="20.5" y="-862.5" font-family="Helvetica,sans-Serif" font-size="10.00">+</text>
<text text-anchor="start" x="33.5" y="-862.5" font-family="Helvetica,sans-Serif" font-size="10.00">add_buffer_reference()</text>
<text text-anchor="start" x="20.5" y="-847.5" font-family="Helvetica,sans-Serif" font-size="10.00">+</text>
<text text-anchor="start" x="33.5" y="-847.5" font-family="Helvetica,sans-Serif" font-size="10.00">enable_mock_process()</text>
<text text-anchor="start" x="20.5" y="-832.5" font-family="Helvetica,sans-Serif" font-size="10.00">+</text>
<text text-anchor="start" x="33.5" y="-832.5" font-family="Helvetica,sans-Serif" font-size="10.00">get_active_snapshot</text>
<text text-anchor="start" x="33.5" y="-821.5" font-family="Helvetica,sans-Serif" font-size="10.00">_context()</text>
<text text-anchor="start" x="20.5" y="-806.5" font-family="Helvetica,sans-Serif" font-size="10.00">+</text>
<text text-anchor="start" x="33.5" y="-806.5" font-family="Helvetica,sans-Serif" font-size="10.00">get_channel_mask()</text>
<text text-anchor="start" x="20.5" y="-791.5" font-family="Helvetica,sans-Serif" font-size="10.00">+</text>
<text text-anchor="start" x="33.5" y="-791.5" font-family="Helvetica,sans-Serif" font-size="10.00">get_frame_rate()</text>
<text text-anchor="start" x="20.5" y="-776.5" font-family="Helvetica,sans-Serif" font-size="10.00">+</text>
<text text-anchor="start" x="33.5" y="-776.5" font-family="Helvetica,sans-Serif" font-size="10.00">get_gpu_data_buffer()</text>
<text text-anchor="start" x="20.5" y="-761.5" font-family="Helvetica,sans-Serif" font-size="10.00">+</text>
<text text-anchor="start" x="33.5" y="-761.5" font-family="Helvetica,sans-Serif" font-size="10.00">get_last_context()</text>
<text text-anchor="start" x="20.5" y="-746.5" font-family="Helvetica,sans-Serif" font-size="10.00">+</text>
<text text-anchor="start" x="33.5" y="-746.5" font-family="Helvetica,sans-Serif" font-size="10.00">get_last_output()</text>
<text text-anchor="start" x="20.5" y="-731.5" font-family="Helvetica,sans-Serif" font-size="10.00">+</text>
<text text-anchor="start" x="33.5" y="-731.5" font-family="Helvetica,sans-Serif" font-size="10.00">get_modulator_tree()</text>
<text text-anchor="start" x="20.5" y="-716.5" font-family="Helvetica,sans-Serif" font-size="10.00">+</text>
<text text-anchor="start" x="33.5" y="-716.5" font-family="Helvetica,sans-Serif" font-size="10.00">get_modulators()</text>
<text text-anchor="start" x="33.5" y="-701.5" font-family="Helvetica,sans-Serif" font-size="10.00">and 37 more...</text>
<text text-anchor="start" x="20.5" y="-686.5" font-family="Helvetica,sans-Serif" font-size="10.00">#</text>
<text text-anchor="start" x="33.5" y="-686.5" font-family="Helvetica,sans-Serif" font-size="10.00">notify_tick()</text>
<text text-anchor="start" x="20.5" y="-671.5" font-family="Helvetica,sans-Serif" font-size="10.00">#</text>
<text text-anchor="start" x="33.5" y="-671.5" font-family="Helvetica,sans-Serif" font-size="10.00">reset_processed_state</text>
<text text-anchor="start" x="33.5" y="-660.5" font-family="Helvetica,sans-Serif" font-size="10.00">_internal()</text>
<polygon fill="#666666" stroke="#666666" points="16.5,-1183.5 16.5,-1183.5 164.5,-1183.5 164.5,-1183.5 16.5,-1183.5"/>
<polygon fill="#666666" stroke="#666666" points="16.5,-872.5 16.5,-872.5 31.5,-872.5 31.5,-872.5 16.5,-872.5"/>
<polygon fill="#666666" stroke="#666666" points="31.5,-872.5 31.5,-872.5 164.5,-872.5 164.5,-872.5 31.5,-872.5"/>
<polygon fill="none" stroke="#666666" points="16.5,-654 16.5,-1201 164.5,-1201 164.5,-654 16.5,-654"/>
</a>
</g>
</g>
<!-- Node3&#45;&gt;Node2 -->
<g id="edge2_Node000002_Node000003" class="edge">
<title>Node3&#45;&gt;Node2</title>
<g id="a_edge2_Node000002_Node000003"><a xlink:title=" ">
<path fill="none" stroke="#63b8ff" d="M168.2,-676.87C171.25,-669.13 174.35,-661.49 177.5,-654 183.96,-638.64 191.39,-622.78 199.1,-607.3"/>
<polygon fill="none" stroke="#63b8ff" points="164.87,-675.78 164.51,-686.37 171.4,-678.31 164.87,-675.78"/>
</a>
</g>
</g>
<!-- Node4 -->
<g id="Node000004" class="node">
<title>Node4</title>
<g id="a_Node000004"><a xlink:href="structMayaFlux_1_1Nodes_1_1RoutingState.html" target="_top" xlink:title="Represents the state of routing transitions for a node.">
<polygon fill="white" stroke="transparent" points="139,-1383 0,-1383 0,-1248 139,-1248 139,-1383"/>
<text text-anchor="start" x="5.5" y="-1370.5" font-family="Helvetica,sans-Serif" font-size="10.00">MayaFlux::Nodes::Routing</text>
<text text-anchor="start" x="57" y="-1359.5" font-family="Helvetica,sans-Serif" font-size="10.00">State</text>
<text text-anchor="start" x="15" y="-1344.5" font-family="Helvetica,sans-Serif" font-size="10.00">+</text>
<text text-anchor="start" x="38.5" y="-1344.5" font-family="Helvetica,sans-Serif" font-size="10.00">amount</text>
<text text-anchor="start" x="15" y="-1329.5" font-family="Helvetica,sans-Serif" font-size="10.00">+</text>
<text text-anchor="start" x="38.5" y="-1329.5" font-family="Helvetica,sans-Serif" font-size="10.00">cycles_elapsed</text>
<text text-anchor="start" x="15" y="-1314.5" font-family="Helvetica,sans-Serif" font-size="10.00">+</text>
<text text-anchor="start" x="38.5" y="-1314.5" font-family="Helvetica,sans-Serif" font-size="10.00">fade_cycles</text>
<text text-anchor="start" x="15" y="-1299.5" font-family="Helvetica,sans-Serif" font-size="10.00">+</text>
<text text-anchor="start" x="38.5" y="-1299.5" font-family="Helvetica,sans-Serif" font-size="10.00">from_channels</text>
<text text-anchor="start" x="15" y="-1284.5" font-family="Helvetica,sans-Serif" font-size="10.00">+</text>
<text text-anchor="start" x="38.5" y="-1284.5" font-family="Helvetica,sans-Serif" font-size="10.00">NONE</text>
<text text-anchor="start" x="15" y="-1269.5" font-family="Helvetica,sans-Serif" font-size="10.00">+</text>
<text text-anchor="start" x="38.5" y="-1269.5" font-family="Helvetica,sans-Serif" font-size="10.00">to_channels</text>
<text text-anchor="start" x="68" y="-1254.5" font-family="Helvetica,sans-Serif" font-size="10.00"> </text>
<polygon fill="#666666" stroke="#666666" points="0.5,-1354.5 0.5,-1354.5 139.5,-1354.5 139.5,-1354.5 0.5,-1354.5"/>
<polygon fill="#666666" stroke="#666666" points="0.5,-1264.5 0.5,-1264.5 36.5,-1264.5 36.5,-1264.5 0.5,-1264.5"/>
<polygon fill="#666666" stroke="#666666" points="36.5,-1264.5 36.5,-1264.5 139.5,-1264.5 139.5,-1264.5 36.5,-1264.5"/>
<polygon fill="none" stroke="#666666" points="0,-1248 0,-1383 139,-1383 139,-1248 0,-1248"/>
</a>
</g>
</g>
<!-- Node4&#45;&gt;Node3 -->
<g id="edge3_Node000003_Node000004" class="edge">
<title>Node4&#45;&gt;Node3</title>
<g id="a_edge3_Node000003_Node000004"><a xlink:title=" ">
<path fill="none" stroke="#63b8ff" d="M73.13,-1247.7C73.71,-1237.1 74.34,-1225.6 75,-1213.46"/>
<polygon fill="none" stroke="#63b8ff" points="75.02,-1213.11 71.35,-1206.9 75.67,-1201.12 79.34,-1207.33 75.02,-1213.11"/>
</a>
</g>
<text text-anchor="middle" x="119" y="-1222" font-family="Helvetica,sans-Serif" font-size="10.00" fill="grey"> &#45;m_routing_state</text>
</g>
<!-- Node5 -->
<g id="Node000005" class="node">
<title>Node5</title>
<g id="a_Node000005"><a xlink:href="classMayaFlux_1_1Nodes_1_1Generator_1_1GeneratorContext.html" target="_top" xlink:title="Specialized context for generator node callbacks.">
<polygon fill="white" stroke="transparent" points="500.5,-1360.5 350.5,-1360.5 350.5,-1270.5 500.5,-1270.5 500.5,-1360.5"/>
<text text-anchor="start" x="355.5" y="-1348.5" font-family="Helvetica,sans-Serif" font-size="10.00">MayaFlux::Nodes::Generator</text>
<text text-anchor="start" x="378.5" y="-1337.5" font-family="Helvetica,sans-Serif" font-size="10.00">::GeneratorContext</text>
<text text-anchor="start" x="363" y="-1322.5" font-family="Helvetica,sans-Serif" font-size="10.00">+</text>
<text text-anchor="start" x="384.5" y="-1322.5" font-family="Helvetica,sans-Serif" font-size="10.00">amplitude</text>
<text text-anchor="start" x="363" y="-1307.5" font-family="Helvetica,sans-Serif" font-size="10.00">+</text>
<text text-anchor="start" x="384.5" y="-1307.5" font-family="Helvetica,sans-Serif" font-size="10.00">frequency</text>
<text text-anchor="start" x="363" y="-1292.5" font-family="Helvetica,sans-Serif" font-size="10.00">+</text>
<text text-anchor="start" x="384.5" y="-1292.5" font-family="Helvetica,sans-Serif" font-size="10.00">phase</text>
<text text-anchor="start" x="363" y="-1277.5" font-family="Helvetica,sans-Serif" font-size="10.00">+</text>
<text text-anchor="start" x="384.5" y="-1277.5" font-family="Helvetica,sans-Serif" font-size="10.00">GeneratorContext()</text>
<polygon fill="#666666" stroke="#666666" points="350.5,-1332.5 350.5,-1332.5 500.5,-1332.5 500.5,-1332.5 350.5,-1332.5"/>
<polygon fill="#666666" stroke="#666666" points="350.5,-1287.5 350.5,-1287.5 382.5,-1287.5 382.5,-1287.5 350.5,-1287.5"/>
<polygon fill="#666666" stroke="#666666" points="382.5,-1287.5 382.5,-1287.5 500.5,-1287.5 500.5,-1287.5 382.5,-1287.5"/>
<polygon fill="none" stroke="#666666" points="350.5,-1270.5 350.5,-1360.5 500.5,-1360.5 500.5,-1270.5 350.5,-1270.5"/>
</a>
</g>
</g>
<!-- Node5&#45;&gt;Node2 -->
<g id="edge4_Node000002_Node000005" class="edge">
<title>Node5&#45;&gt;Node2</title>
<g id="a_edge4_Node000002_Node000005"><a xlink:title=" ">
<path fill="none" stroke="#63b8ff" d="M428.31,-1270.41C433.87,-1158.46 439.09,-855.75 352.5,-625 349.65,-617.39 346.24,-609.82 342.44,-602.37"/>
<polygon fill="none" stroke="#63b8ff" points="342.31,-602.12 335.94,-598.73 336.62,-591.55 342.99,-594.94 342.31,-602.12"/>
</a>
</g>
<text text-anchor="middle" x="462.5" y="-925" font-family="Helvetica,sans-Serif" font-size="10.00" fill="grey"> #m_context</text>
</g>
<!-- Node7 -->
<g id="Node000007" class="node">
<title>Node7</title>
<g id="a_Node000007"><a xlink:href="classMayaFlux_1_1Nodes_1_1Generator_1_1GeneratorContextGpu.html" target="_top" xlink:title=" ">
<polygon fill="white" stroke="transparent" points="336.5,-957.5 186.5,-957.5 186.5,-897.5 336.5,-897.5 336.5,-957.5"/>
<text text-anchor="start" x="191.5" y="-945.5" font-family="Helvetica,sans-Serif" font-size="10.00">MayaFlux::Nodes::Generator</text>
<text text-anchor="start" x="205" y="-934.5" font-family="Helvetica,sans-Serif" font-size="10.00">::GeneratorContextGpu</text>
<text text-anchor="start" x="259.5" y="-919.5" font-family="Helvetica,sans-Serif" font-size="10.00"> </text>
<text text-anchor="start" x="194" y="-904.5" font-family="Helvetica,sans-Serif" font-size="10.00">+</text>
<text text-anchor="start" x="210.5" y="-904.5" font-family="Helvetica,sans-Serif" font-size="10.00">GeneratorContextGpu()</text>
<polygon fill="#666666" stroke="#666666" points="186.5,-929.5 186.5,-929.5 336.5,-929.5 336.5,-929.5 186.5,-929.5"/>
<polygon fill="#666666" stroke="#666666" points="186.5,-914.5 186.5,-914.5 336.5,-914.5 336.5,-914.5 186.5,-914.5"/>
<polygon fill="none" stroke="#666666" points="186.5,-897.5 186.5,-957.5 336.5,-957.5 336.5,-897.5 186.5,-897.5"/>
</a>
</g>
</g>
<!-- Node5&#45;&gt;Node7 -->
<g id="edge7_Node000007_Node000005" class="edge">
<title>Node5&#45;&gt;Node7</title>
<g id="a_edge7_Node000007_Node000005"><a xlink:title=" ">
<path fill="none" stroke="#63b8ff" d="M402.77,-1260.99C367.61,-1178.24 301.24,-1022.04 273.83,-957.52"/>
<polygon fill="none" stroke="#63b8ff" points="399.56,-1262.39 406.69,-1270.22 406,-1259.65 399.56,-1262.39"/>
</a>
</g>
</g>
<!-- Node6 -->
<g id="Node000006" class="node">
<title>Node6</title>
<g id="a_Node000006"><a xlink:href="classMayaFlux_1_1Nodes_1_1NodeContext.html" target="_top" xlink:title="Base context class for node callbacks.">
<polygon fill="white" stroke="transparent" points="508,-1514 343,-1514 343,-1420 508,-1420 508,-1514"/>
<text text-anchor="start" x="348.5" y="-1502" font-family="Helvetica,sans-Serif" font-size="10.00">MayaFlux::Nodes::NodeContext</text>
<text text-anchor="start" x="363.5" y="-1487" font-family="Helvetica,sans-Serif" font-size="10.00">+</text>
<text text-anchor="start" x="392.5" y="-1487" font-family="Helvetica,sans-Serif" font-size="10.00">value</text>
<text text-anchor="start" x="363.5" y="-1472" font-family="Helvetica,sans-Serif" font-size="10.00">+</text>
<text text-anchor="start" x="392.5" y="-1472" font-family="Helvetica,sans-Serif" font-size="10.00">as()</text>
<text text-anchor="start" x="363.5" y="-1457" font-family="Helvetica,sans-Serif" font-size="10.00">+</text>
<text text-anchor="start" x="392.5" y="-1457" font-family="Helvetica,sans-Serif" font-size="10.00">as()</text>
<text text-anchor="start" x="363.5" y="-1442" font-family="Helvetica,sans-Serif" font-size="10.00">+</text>
<text text-anchor="start" x="392.5" y="-1442" font-family="Helvetica,sans-Serif" font-size="10.00">~NodeContext()</text>
<text text-anchor="start" x="363.5" y="-1427" font-family="Helvetica,sans-Serif" font-size="10.00">#</text>
<text text-anchor="start" x="392.5" y="-1427" font-family="Helvetica,sans-Serif" font-size="10.00">NodeContext()</text>
<polygon fill="#666666" stroke="#666666" points="343.5,-1497 343.5,-1497 508.5,-1497 508.5,-1497 343.5,-1497"/>
<polygon fill="#666666" stroke="#666666" points="343.5,-1482 343.5,-1482 390.5,-1482 390.5,-1482 343.5,-1482"/>
<polygon fill="#666666" stroke="#666666" points="390.5,-1482 390.5,-1482 508.5,-1482 508.5,-1482 390.5,-1482"/>
<polygon fill="none" stroke="#666666" points="343,-1420 343,-1514 508,-1514 508,-1420 343,-1420"/>
</a>
</g>
</g>
<!-- Node6&#45;&gt;Node5 -->
<g id="edge5_Node000005_Node000006" class="edge">
<title>Node6&#45;&gt;Node5</title>
<g id="a_edge5_Node000005_Node000006"><a xlink:title=" ">
<path fill="none" stroke="#63b8ff" d="M425.5,-1409.51C425.5,-1393.33 425.5,-1375.95 425.5,-1360.63"/>
<polygon fill="none" stroke="#63b8ff" points="422,-1409.93 425.5,-1419.93 429,-1409.93 422,-1409.93"/>
</a>
</g>
</g>
<!-- Node7&#45;&gt;Node2 -->
<g id="edge6_Node000002_Node000007" class="edge">
<title>Node7&#45;&gt;Node2</title>
<g id="a_edge6_Node000002_Node000007"><a xlink:title=" ">
<path fill="none" stroke="#63b8ff" d="M261.5,-897.21C261.5,-841.07 261.5,-715.35 261.5,-619.4"/>
<polygon fill="none" stroke="#63b8ff" points="261.5,-619.26 257.5,-613.26 261.5,-607.26 265.5,-613.26 261.5,-619.26"/>
</a>
</g>
<text text-anchor="middle" x="305" y="-628" font-family="Helvetica,sans-Serif" font-size="10.00" fill="grey"> #m_context_gpu</text>
</g>
<!-- Node8 -->
<g id="Node000008" class="node">
<title>Node8</title>
<g id="a_Node000008"><a xlink:href="classMayaFlux_1_1Nodes_1_1GpuVectorData.html" target="_top" xlink:title="GPU&#45;uploadable 1D array data interface.">
<polygon fill="white" stroke="transparent" points="332,-1370 157,-1370 157,-1261 332,-1261 332,-1370"/>
<text text-anchor="start" x="162.5" y="-1357.5" font-family="Helvetica,sans-Serif" font-size="10.00">MayaFlux::Nodes::GpuVectorData</text>
<text text-anchor="start" x="179.5" y="-1342.5" font-family="Helvetica,sans-Serif" font-size="10.00">#</text>
<text text-anchor="start" x="210.5" y="-1342.5" font-family="Helvetica,sans-Serif" font-size="10.00">m_gpu_data</text>
<text text-anchor="start" x="179.5" y="-1327.5" font-family="Helvetica,sans-Serif" font-size="10.00">+</text>
<text text-anchor="start" x="210.5" y="-1327.5" font-family="Helvetica,sans-Serif" font-size="10.00">gpu_data()</text>
<text text-anchor="start" x="179.5" y="-1312.5" font-family="Helvetica,sans-Serif" font-size="10.00">+</text>
<text text-anchor="start" x="210.5" y="-1312.5" font-family="Helvetica,sans-Serif" font-size="10.00">gpu_data_size()</text>
<text text-anchor="start" x="179.5" y="-1297.5" font-family="Helvetica,sans-Serif" font-size="10.00">+</text>
<text text-anchor="start" x="210.5" y="-1297.5" font-family="Helvetica,sans-Serif" font-size="10.00">GpuVectorData()</text>
<text text-anchor="start" x="179.5" y="-1282.5" font-family="Helvetica,sans-Serif" font-size="10.00">+</text>
<text text-anchor="start" x="210.5" y="-1282.5" font-family="Helvetica,sans-Serif" font-size="10.00">GpuVectorData()</text>
<text text-anchor="start" x="179.5" y="-1267.5" font-family="Helvetica,sans-Serif" font-size="10.00">+</text>
<text text-anchor="start" x="210.5" y="-1267.5" font-family="Helvetica,sans-Serif" font-size="10.00">has_gpu_data()</text>
<polygon fill="#666666" stroke="#666666" points="157.5,-1352.5 157.5,-1352.5 332.5,-1352.5 332.5,-1352.5 157.5,-1352.5"/>
<polygon fill="#666666" stroke="#666666" points="157.5,-1337.5 157.5,-1337.5 208.5,-1337.5 208.5,-1337.5 157.5,-1337.5"/>
<polygon fill="#666666" stroke="#666666" points="208.5,-1337.5 208.5,-1337.5 332.5,-1337.5 332.5,-1337.5 208.5,-1337.5"/>
<polygon fill="none" stroke="#666666" points="157,-1261 157,-1370 332,-1370 332,-1261 157,-1261"/>
</a>
</g>
</g>
<!-- Node8&#45;&gt;Node7 -->
<g id="edge8_Node000007_Node000008" class="edge">
<title>Node8&#45;&gt;Node7</title>
<g id="a_edge8_Node000007_Node000008"><a xlink:title=" ">
<path fill="none" stroke="#63b8ff" d="M247.3,-1250.82C251.03,-1166.15 257.47,-1019.99 260.21,-957.84"/>
<polygon fill="none" stroke="#63b8ff" points="243.81,-1250.68 246.86,-1260.83 250.8,-1250.99 243.81,-1250.68"/>
</a>
</g>
</g>
</g>
</svg>

<g id="navigator" transform="translate(0 0)" fill="#404254">
  <rect fill="#f2f5e9" fill-opacity="0.5" stroke="#606060" stroke-width=".5" x="0" y="0" width="60" height="60"/>
  <use id="zoomplus" xlink:href="#zoomPlus" x="17" y="9" onmousedown="handleZoom(evt,'in')"/>
  <use id="zoomminus" xlink:href="#zoomMin" x="42" y="9" onmousedown="handleZoom(evt,'out')"/>
  <use id="reset" xlink:href="#resetDef" x="30" y="36" onmousedown="handleReset()"/>
   <use id="arrowup" xlink:href="#arrowUp" x="0" y="0" onmousedown="handlePan(0,-1)"/>
  <use id="arrowright" xlink:href="#arrowRight" x="0" y="0" onmousedown="handlePan(1,0)"/>
  <use id="arrowdown" xlink:href="#arrowDown" x="0" y="0" onmousedown="handlePan(0,1)"/>
  <use id="arrowleft" xlink:href="#arrowLeft" x="0" y="0" onmousedown="handlePan(-1,0)"/>
</g>
<svg viewBox="0 0 15 15" width="100%" height="30px" preserveAspectRatio="xMaxYMin meet">
 <g id="arrow_out" transform="scale(0.3 0.3)">
  <a xlink:href="classMayaFlux_1_1Nodes_1_1Generator_1_1Sine__coll__graph_org.svg" target="_base">
   <rect id="button" ry="5" rx="5" y="6" x="6" height="38" width="38"
        fill="#f2f5e9" fill-opacity="0.5" stroke="#606060" stroke-width="1.0"/>
   <path id="arrow"
     d="M 11.500037,31.436501 C 11.940474,20.09759 22.043105,11.32322 32.158766,21.979434 L 37.068811,17.246167 C 37.068811,17.246167 37.088388,32 37.088388,32 L 22.160133,31.978069 C 22.160133,31.978069 26.997745,27.140456 26.997745,27.140456 C 18.528582,18.264221 13.291696,25.230495 11.500037,31.436501 z"
     style="fill:#404040;"/>
  </a>
 </g>
</svg>

<style type='text/css'>
<![CDATA[
[data-mouse-over-selected='false'] { opacity: 0.7; }
[data-mouse-over-selected='true']  { opacity: 1.0; }
]]>
</style>
<script type="application/ecmascript"><![CDATA[
document.addEventListener('DOMContentLoaded', (event) => {
  highlightEdges();
  highlightAdjacentNodes();
});
]]></script>
</svg>
