<?xml version="1.0" encoding="UTF-8" standalone="no"?>
<!DOCTYPE svg PUBLIC "-//W3C//DTD SVG 1.1//EN"
 "http://www.w3.org/Graphics/SVG/1.1/DTD/svg11.dtd">
<!-- Generated by graphviz version 2.43.0 (0)
 -->
<!-- Title: MayaFlux::Buffers::BufferProcessingControl Pages: 1 -->
<!--zoomable 884 -->

<svg id="main" version="1.1" xmlns="http://www.w3.org/2000/svg" xmlns:xlink="http://www.w3.org/1999/xlink" xml:space="preserve" onload="init(evt)">
<style type="text/css"><![CDATA[
.node, .edge {opacity: 0.7;}
.node.selected, .edge.selected {opacity: 1;}
.edge:hover path { stroke: red; }
.edge:hover polygon { stroke: red; fill: red; }
]]></style>

<defs>
  <circle id="rim" cx="0" cy="0" r="7"/>
  <circle id="rim2" cx="0" cy="0" r="3.5"/>
  <g id="zoomPlus">
    <use xlink:href="#rim" fill="#404040"><set attributeName="fill" to="#808080" begin="zoomplus.mouseover" end="zoomplus.mouseout"/></use>
    <path d="M-4,0h8M0,-4v8" fill="none" stroke="white" stroke-width="1.5" pointer-events="none"/>
  </g>
  <g id="zoomMin">
    <use xlink:href="#rim" fill="#404040"><set attributeName="fill" to="#808080" begin="zoomminus.mouseover" end="zoomminus.mouseout"/></use>
    <path d="M-4,0h8" fill="none" stroke="white" stroke-width="1.5" pointer-events="none"/>
  </g>
  <g id="arrowUp" transform="translate(30 24)">
    <use xlink:href="#rim"/>
    <path pointer-events="none" fill="none" stroke="white" stroke-width="1.5" d="M0,-3.0v7 M-2.5,-0.5L0,-3.0L2.5,-0.5"/>
  </g>
  <g id="arrowRight" transform="rotate(90) translate(36 -43)">
    <use xlink:href="#rim"/>
    <path pointer-events="none" fill="none" stroke="white" stroke-width="1.5" d="M0,-3.0v7 M-2.5,-0.5L0,-3.0L2.5,-0.5"/>
  </g>
  <g id="arrowDown" transform="rotate(180) translate(-30 -48)">
    <use xlink:href="#rim"/>
    <path pointer-events="none" fill="none" stroke="white" stroke-width="1.5" d="M0,-3.0v7 M-2.5,-0.5L0,-3.0L2.5,-0.5"/>
  </g>
  <g id="arrowLeft" transform="rotate(270) translate(-36 17)">
    <use xlink:href="#rim"/>
    <path pointer-events="none" fill="none" stroke="white" stroke-width="1.5" d="M0,-3.0v7 M-2.5,-0.5L0,-3.0L2.5,-0.5"/>
  </g>
  <g id="resetDef">
    <use xlink:href="#rim2" fill="#404040"><set attributeName="fill" to="#808080" begin="reset.mouseover" end="reset.mouseout"/></use>
  </g>
</defs>
<script type="application/ecmascript">
var viewWidth = 351;
var viewHeight = 884;
var sectionId = 'dynsection-0';
</script>
<script type="application/ecmascript" xlink:href="svg.min.js"/>
<svg id="graph" class="graph">
<g id="viewport">
<title>MayaFlux::Buffers::BufferProcessingControl</title>
<!-- Node1 -->
<g id="Node000001" class="node">
<title>Node1</title>
<g id="a_Node000001"><a xlink:title="Processor attachment, removal, and processing chain management.">
<polygon fill="#999999" stroke="transparent" points="160.5,-232 14.5,-232 14.5,0 160.5,0 160.5,-232"/>
<text text-anchor="start" x="28.5" y="-220" font-family="Helvetica,sans-Serif" font-size="10.00">MayaFlux::Buffers::</text>
<text text-anchor="start" x="28.5" y="-209" font-family="Helvetica,sans-Serif" font-size="10.00">BufferProcessingControl</text>
<text text-anchor="start" x="85.5" y="-194" font-family="Helvetica,sans-Serif" font-size="10.00"> </text>
<text text-anchor="start" x="18.5" y="-179" font-family="Helvetica,sans-Serif" font-size="10.00">+</text>
<text text-anchor="start" x="31.5" y="-179" font-family="Helvetica,sans-Serif" font-size="10.00">add_audio_processor()</text>
<text text-anchor="start" x="18.5" y="-164" font-family="Helvetica,sans-Serif" font-size="10.00">+</text>
<text text-anchor="start" x="31.5" y="-164" font-family="Helvetica,sans-Serif" font-size="10.00">add_audio_processor</text>
<text text-anchor="start" x="31.5" y="-153" font-family="Helvetica,sans-Serif" font-size="10.00">_to_channel()</text>
<text text-anchor="start" x="18.5" y="-138" font-family="Helvetica,sans-Serif" font-size="10.00">+</text>
<text text-anchor="start" x="31.5" y="-138" font-family="Helvetica,sans-Serif" font-size="10.00">add_audio_processor</text>
<text text-anchor="start" x="31.5" y="-127" font-family="Helvetica,sans-Serif" font-size="10.00">_to_token()</text>
<text text-anchor="start" x="18.5" y="-112" font-family="Helvetica,sans-Serif" font-size="10.00">+</text>
<text text-anchor="start" x="31.5" y="-112" font-family="Helvetica,sans-Serif" font-size="10.00">add_graphics_processor()</text>
<text text-anchor="start" x="18.5" y="-97" font-family="Helvetica,sans-Serif" font-size="10.00">+</text>
<text text-anchor="start" x="31.5" y="-97" font-family="Helvetica,sans-Serif" font-size="10.00">add_graphics_processor()</text>
<text text-anchor="start" x="18.5" y="-82" font-family="Helvetica,sans-Serif" font-size="10.00">+</text>
<text text-anchor="start" x="31.5" y="-82" font-family="Helvetica,sans-Serif" font-size="10.00">add_processor()</text>
<text text-anchor="start" x="18.5" y="-67" font-family="Helvetica,sans-Serif" font-size="10.00">+</text>
<text text-anchor="start" x="31.5" y="-67" font-family="Helvetica,sans-Serif" font-size="10.00">add_processor()</text>
<text text-anchor="start" x="18.5" y="-52" font-family="Helvetica,sans-Serif" font-size="10.00">+</text>
<text text-anchor="start" x="31.5" y="-52" font-family="Helvetica,sans-Serif" font-size="10.00">add_processor()</text>
<text text-anchor="start" x="18.5" y="-37" font-family="Helvetica,sans-Serif" font-size="10.00">+</text>
<text text-anchor="start" x="31.5" y="-37" font-family="Helvetica,sans-Serif" font-size="10.00">attach_quick_process()</text>
<text text-anchor="start" x="18.5" y="-22" font-family="Helvetica,sans-Serif" font-size="10.00">+</text>
<text text-anchor="start" x="31.5" y="-22" font-family="Helvetica,sans-Serif" font-size="10.00">attach_quick_process()</text>
<text text-anchor="start" x="31.5" y="-7" font-family="Helvetica,sans-Serif" font-size="10.00">and 16 more...</text>
<polygon fill="#666666" stroke="#666666" points="14.5,-204 14.5,-204 160.5,-204 160.5,-204 14.5,-204"/>
<polygon fill="#666666" stroke="#666666" points="14.5,-189 14.5,-189 160.5,-189 160.5,-189 14.5,-189"/>
<polygon fill="none" stroke="#666666" points="14.5,0 14.5,-232 160.5,-232 160.5,0 14.5,0"/>
</a>
</g>
</g>
<!-- Node2 -->
<g id="Node000002" class="node">
<title>Node2</title>
<g id="a_Node000002"><a xlink:href="classMayaFlux_1_1Buffers_1_1TokenUnitManager.html" target="_top" xlink:title="Token&#45;scoped unit storage and lifecycle management.">
<polygon fill="white" stroke="transparent" points="153,-876 0,-876 0,-547 153,-547 153,-876"/>
<text text-anchor="start" x="29.5" y="-863.5" font-family="Helvetica,sans-Serif" font-size="10.00">MayaFlux::Buffers::</text>
<text text-anchor="start" x="31.5" y="-852.5" font-family="Helvetica,sans-Serif" font-size="10.00">TokenUnitManager</text>
<text text-anchor="start" x="7" y="-837.5" font-family="Helvetica,sans-Serif" font-size="10.00">&#45;</text>
<text text-anchor="start" x="17.5" y="-837.5" font-family="Helvetica,sans-Serif" font-size="10.00">m_audio_units</text>
<text text-anchor="start" x="7" y="-822.5" font-family="Helvetica,sans-Serif" font-size="10.00">&#45;</text>
<text text-anchor="start" x="17.5" y="-822.5" font-family="Helvetica,sans-Serif" font-size="10.00">m_default_audio_token</text>
<text text-anchor="start" x="7" y="-807.5" font-family="Helvetica,sans-Serif" font-size="10.00">&#45;</text>
<text text-anchor="start" x="17.5" y="-807.5" font-family="Helvetica,sans-Serif" font-size="10.00">m_default_graphics</text>
<text text-anchor="start" x="17.5" y="-796.5" font-family="Helvetica,sans-Serif" font-size="10.00">_token</text>
<text text-anchor="start" x="7" y="-781.5" font-family="Helvetica,sans-Serif" font-size="10.00">&#45;</text>
<text text-anchor="start" x="17.5" y="-781.5" font-family="Helvetica,sans-Serif" font-size="10.00">m_graphics_units</text>
<text text-anchor="start" x="7" y="-766.5" font-family="Helvetica,sans-Serif" font-size="10.00">&#45;</text>
<text text-anchor="start" x="17.5" y="-766.5" font-family="Helvetica,sans-Serif" font-size="10.00">m_manager_mutex</text>
<text text-anchor="start" x="7" y="-751.5" font-family="Helvetica,sans-Serif" font-size="10.00">&#45;</text>
<text text-anchor="start" x="17.5" y="-751.5" font-family="Helvetica,sans-Serif" font-size="10.00">m_preferred_buffer_size</text>
<text text-anchor="start" x="4.5" y="-736.5" font-family="Helvetica,sans-Serif" font-size="10.00">+</text>
<text text-anchor="start" x="17.5" y="-736.5" font-family="Helvetica,sans-Serif" font-size="10.00">ensure_and_get_audio</text>
<text text-anchor="start" x="17.5" y="-725.5" font-family="Helvetica,sans-Serif" font-size="10.00">_unit()</text>
<text text-anchor="start" x="4.5" y="-710.5" font-family="Helvetica,sans-Serif" font-size="10.00">+</text>
<text text-anchor="start" x="17.5" y="-710.5" font-family="Helvetica,sans-Serif" font-size="10.00">ensure_audio_channels()</text>
<text text-anchor="start" x="4.5" y="-695.5" font-family="Helvetica,sans-Serif" font-size="10.00">+</text>
<text text-anchor="start" x="17.5" y="-695.5" font-family="Helvetica,sans-Serif" font-size="10.00">get_active_audio_tokens()</text>
<text text-anchor="start" x="4.5" y="-680.5" font-family="Helvetica,sans-Serif" font-size="10.00">+</text>
<text text-anchor="start" x="17.5" y="-680.5" font-family="Helvetica,sans-Serif" font-size="10.00">get_active_graphics</text>
<text text-anchor="start" x="17.5" y="-669.5" font-family="Helvetica,sans-Serif" font-size="10.00">_tokens()</text>
<text text-anchor="start" x="4.5" y="-654.5" font-family="Helvetica,sans-Serif" font-size="10.00">+</text>
<text text-anchor="start" x="17.5" y="-654.5" font-family="Helvetica,sans-Serif" font-size="10.00">get_audio_buffer_size()</text>
<text text-anchor="start" x="4.5" y="-639.5" font-family="Helvetica,sans-Serif" font-size="10.00">+</text>
<text text-anchor="start" x="17.5" y="-639.5" font-family="Helvetica,sans-Serif" font-size="10.00">get_audio_channel_count()</text>
<text text-anchor="start" x="4.5" y="-624.5" font-family="Helvetica,sans-Serif" font-size="10.00">+</text>
<text text-anchor="start" x="17.5" y="-624.5" font-family="Helvetica,sans-Serif" font-size="10.00">get_audio_unit()</text>
<text text-anchor="start" x="4.5" y="-609.5" font-family="Helvetica,sans-Serif" font-size="10.00">+</text>
<text text-anchor="start" x="17.5" y="-609.5" font-family="Helvetica,sans-Serif" font-size="10.00">get_audio_unit_mutable()</text>
<text text-anchor="start" x="4.5" y="-594.5" font-family="Helvetica,sans-Serif" font-size="10.00">+</text>
<text text-anchor="start" x="17.5" y="-594.5" font-family="Helvetica,sans-Serif" font-size="10.00">get_default_audio_token()</text>
<text text-anchor="start" x="4.5" y="-579.5" font-family="Helvetica,sans-Serif" font-size="10.00">+</text>
<text text-anchor="start" x="17.5" y="-579.5" font-family="Helvetica,sans-Serif" font-size="10.00">get_default_graphics</text>
<text text-anchor="start" x="17.5" y="-568.5" font-family="Helvetica,sans-Serif" font-size="10.00">_token()</text>
<text text-anchor="start" x="17.5" y="-553.5" font-family="Helvetica,sans-Serif" font-size="10.00">and 12 more...</text>
<polygon fill="#666666" stroke="#666666" points="0.5,-847.5 0.5,-847.5 153.5,-847.5 153.5,-847.5 0.5,-847.5"/>
<polygon fill="#666666" stroke="#666666" points="0.5,-746.5 0.5,-746.5 15.5,-746.5 15.5,-746.5 0.5,-746.5"/>
<polygon fill="#666666" stroke="#666666" points="15.5,-746.5 15.5,-746.5 153.5,-746.5 153.5,-746.5 15.5,-746.5"/>
<polygon fill="none" stroke="#666666" points="0,-547 0,-876 153,-876 153,-547 0,-547"/>
</a>
</g>
</g>
<!-- Node2&#45;&gt;Node1 -->
<g id="edge1_Node000001_Node000002" class="edge">
<title>Node2&#45;&gt;Node1</title>
<g id="a_edge1_Node000001_Node000002"><a xlink:title=" ">
<path fill="none" stroke="#63b8ff" d="M76.71,-546.81C77.15,-466.16 78.18,-367.46 80.5,-279 80.8,-267.72 81.17,-256 81.59,-244.26"/>
<polygon fill="none" stroke="#63b8ff" points="81.6,-244.02 77.83,-237.88 82.05,-232.03 85.82,-238.18 81.6,-244.02"/>
</a>
</g>
<text text-anchor="middle" x="125.5" y="-387" font-family="Helvetica,sans-Serif" font-size="10.00" fill="grey"> &#45;m_unit_manager</text>
</g>
<!-- Node3 -->
<g id="Node000003" class="node">
<title>Node3</title>
<g id="a_Node000003"><a xlink:href="classMayaFlux_1_1Buffers_1_1BufferAccessControl.html" target="_top" xlink:title="Token&#45;aware buffer and unit access patterns.">
<polygon fill="white" stroke="transparent" points="323,-500 180,-500 180,-279 323,-279 323,-500"/>
<text text-anchor="start" x="202.5" y="-487.5" font-family="Helvetica,sans-Serif" font-size="10.00">MayaFlux::Buffers::</text>
<text text-anchor="start" x="202.5" y="-476.5" font-family="Helvetica,sans-Serif" font-size="10.00">BufferAccessControl</text>
<text text-anchor="start" x="250" y="-461.5" font-family="Helvetica,sans-Serif" font-size="10.00"> </text>
<text text-anchor="start" x="184.5" y="-446.5" font-family="Helvetica,sans-Serif" font-size="10.00">+</text>
<text text-anchor="start" x="197.5" y="-446.5" font-family="Helvetica,sans-Serif" font-size="10.00">add_audio_buffer()</text>
<text text-anchor="start" x="184.5" y="-431.5" font-family="Helvetica,sans-Serif" font-size="10.00">+</text>
<text text-anchor="start" x="197.5" y="-431.5" font-family="Helvetica,sans-Serif" font-size="10.00">add_buffer()</text>
<text text-anchor="start" x="184.5" y="-416.5" font-family="Helvetica,sans-Serif" font-size="10.00">+</text>
<text text-anchor="start" x="197.5" y="-416.5" font-family="Helvetica,sans-Serif" font-size="10.00">add_graphics_buffer()</text>
<text text-anchor="start" x="184.5" y="-401.5" font-family="Helvetica,sans-Serif" font-size="10.00">+</text>
<text text-anchor="start" x="197.5" y="-401.5" font-family="Helvetica,sans-Serif" font-size="10.00">BufferAccessControl()</text>
<text text-anchor="start" x="184.5" y="-386.5" font-family="Helvetica,sans-Serif" font-size="10.00">+</text>
<text text-anchor="start" x="197.5" y="-386.5" font-family="Helvetica,sans-Serif" font-size="10.00">ensure_audio_channels()</text>
<text text-anchor="start" x="184.5" y="-371.5" font-family="Helvetica,sans-Serif" font-size="10.00">+</text>
<text text-anchor="start" x="197.5" y="-371.5" font-family="Helvetica,sans-Serif" font-size="10.00">get_audio_buffer_data()</text>
<text text-anchor="start" x="184.5" y="-356.5" font-family="Helvetica,sans-Serif" font-size="10.00">+</text>
<text text-anchor="start" x="197.5" y="-356.5" font-family="Helvetica,sans-Serif" font-size="10.00">get_audio_buffer_data()</text>
<text text-anchor="start" x="184.5" y="-341.5" font-family="Helvetica,sans-Serif" font-size="10.00">+</text>
<text text-anchor="start" x="197.5" y="-341.5" font-family="Helvetica,sans-Serif" font-size="10.00">get_audio_buffer_size()</text>
<text text-anchor="start" x="184.5" y="-326.5" font-family="Helvetica,sans-Serif" font-size="10.00">+</text>
<text text-anchor="start" x="197.5" y="-326.5" font-family="Helvetica,sans-Serif" font-size="10.00">get_audio_buffers()</text>
<text text-anchor="start" x="184.5" y="-311.5" font-family="Helvetica,sans-Serif" font-size="10.00">+</text>
<text text-anchor="start" x="197.5" y="-311.5" font-family="Helvetica,sans-Serif" font-size="10.00">get_audio_processing</text>
<text text-anchor="start" x="197.5" y="-300.5" font-family="Helvetica,sans-Serif" font-size="10.00">_chain()</text>
<text text-anchor="start" x="197.5" y="-285.5" font-family="Helvetica,sans-Serif" font-size="10.00">and 15 more...</text>
<polygon fill="#666666" stroke="#666666" points="180.5,-471.5 180.5,-471.5 323.5,-471.5 323.5,-471.5 180.5,-471.5"/>
<polygon fill="#666666" stroke="#666666" points="180.5,-456.5 180.5,-456.5 323.5,-456.5 323.5,-456.5 180.5,-456.5"/>
<polygon fill="none" stroke="#666666" points="180,-279 180,-500 323,-500 323,-279 180,-279"/>
</a>
</g>
</g>
<!-- Node2&#45;&gt;Node3 -->
<g id="edge3_Node000003_Node000002" class="edge">
<title>Node2&#45;&gt;Node3</title>
<g id="a_edge3_Node000003_Node000002"><a xlink:title=" ">
<path fill="none" stroke="#63b8ff" d="M142.11,-546.92C147.07,-537.01 152.22,-527.3 157.5,-518 162.28,-509.59 167.53,-501.08 173.01,-492.65"/>
<polygon fill="none" stroke="#63b8ff" points="173.16,-492.43 173.16,-485.22 179.81,-482.44 179.82,-489.65 173.16,-492.43"/>
</a>
</g>
<text text-anchor="middle" x="202.5" y="-521" font-family="Helvetica,sans-Serif" font-size="10.00" fill="grey"> &#45;m_unit_manager</text>
</g>
<!-- Node3&#45;&gt;Node1 -->
<g id="edge2_Node000001_Node000003" class="edge">
<title>Node3&#45;&gt;Node1</title>
<g id="a_edge2_Node000001_Node000003"><a xlink:title=" ">
<path fill="none" stroke="#63b8ff" d="M185.27,-278.85C178.12,-267.02 170.8,-254.9 163.55,-242.89"/>
<polygon fill="none" stroke="#63b8ff" points="163.4,-242.65 156.87,-239.58 157.19,-232.37 163.72,-235.44 163.4,-242.65"/>
</a>
</g>
<text text-anchor="middle" x="221.5" y="-253" font-family="Helvetica,sans-Serif" font-size="10.00" fill="grey"> &#45;m_access_control</text>
</g>
<!-- Node4 -->
<g id="Node000004" class="node">
<title>Node4</title>
<g id="a_Node000004"><a xlink:href="structMayaFlux_1_1Registry_1_1Service_1_1BufferService.html" target="_top" xlink:title="Backend buffer management service interface.">
<polygon fill="white" stroke="transparent" points="327.5,-846.5 175.5,-846.5 175.5,-576.5 327.5,-576.5 327.5,-846.5"/>
<text text-anchor="start" x="194.5" y="-834.5" font-family="Helvetica,sans-Serif" font-size="10.00">MayaFlux::Registry</text>
<text text-anchor="start" x="194.5" y="-823.5" font-family="Helvetica,sans-Serif" font-size="10.00">::Service::BufferService</text>
<text text-anchor="start" x="179.5" y="-808.5" font-family="Helvetica,sans-Serif" font-size="10.00">+</text>
<text text-anchor="start" x="192.5" y="-808.5" font-family="Helvetica,sans-Serif" font-size="10.00">allocate_raw_buffer</text>
<text text-anchor="start" x="179.5" y="-793.5" font-family="Helvetica,sans-Serif" font-size="10.00">+</text>
<text text-anchor="start" x="192.5" y="-793.5" font-family="Helvetica,sans-Serif" font-size="10.00">copy_buffer</text>
<text text-anchor="start" x="179.5" y="-778.5" font-family="Helvetica,sans-Serif" font-size="10.00">+</text>
<text text-anchor="start" x="192.5" y="-778.5" font-family="Helvetica,sans-Serif" font-size="10.00">copy_buffer_fenced</text>
<text text-anchor="start" x="179.5" y="-763.5" font-family="Helvetica,sans-Serif" font-size="10.00">+</text>
<text text-anchor="start" x="192.5" y="-763.5" font-family="Helvetica,sans-Serif" font-size="10.00">destroy_buffer</text>
<text text-anchor="start" x="179.5" y="-748.5" font-family="Helvetica,sans-Serif" font-size="10.00">+</text>
<text text-anchor="start" x="192.5" y="-748.5" font-family="Helvetica,sans-Serif" font-size="10.00">execute_fenced</text>
<text text-anchor="start" x="179.5" y="-733.5" font-family="Helvetica,sans-Serif" font-size="10.00">+</text>
<text text-anchor="start" x="192.5" y="-733.5" font-family="Helvetica,sans-Serif" font-size="10.00">execute_immediate</text>
<text text-anchor="start" x="179.5" y="-718.5" font-family="Helvetica,sans-Serif" font-size="10.00">+</text>
<text text-anchor="start" x="192.5" y="-718.5" font-family="Helvetica,sans-Serif" font-size="10.00">flush_range</text>
<text text-anchor="start" x="179.5" y="-703.5" font-family="Helvetica,sans-Serif" font-size="10.00">+</text>
<text text-anchor="start" x="192.5" y="-703.5" font-family="Helvetica,sans-Serif" font-size="10.00">get_buffer_device_address</text>
<text text-anchor="start" x="179.5" y="-688.5" font-family="Helvetica,sans-Serif" font-size="10.00">+</text>
<text text-anchor="start" x="192.5" y="-688.5" font-family="Helvetica,sans-Serif" font-size="10.00">initialize_buffer</text>
<text text-anchor="start" x="179.5" y="-673.5" font-family="Helvetica,sans-Serif" font-size="10.00">+</text>
<text text-anchor="start" x="192.5" y="-673.5" font-family="Helvetica,sans-Serif" font-size="10.00">invalidate_range</text>
<text text-anchor="start" x="179.5" y="-658.5" font-family="Helvetica,sans-Serif" font-size="10.00">+</text>
<text text-anchor="start" x="192.5" y="-658.5" font-family="Helvetica,sans-Serif" font-size="10.00">map_buffer</text>
<text text-anchor="start" x="179.5" y="-643.5" font-family="Helvetica,sans-Serif" font-size="10.00">+</text>
<text text-anchor="start" x="192.5" y="-643.5" font-family="Helvetica,sans-Serif" font-size="10.00">record_deferred</text>
<text text-anchor="start" x="179.5" y="-628.5" font-family="Helvetica,sans-Serif" font-size="10.00">+</text>
<text text-anchor="start" x="192.5" y="-628.5" font-family="Helvetica,sans-Serif" font-size="10.00">release_fenced</text>
<text text-anchor="start" x="179.5" y="-613.5" font-family="Helvetica,sans-Serif" font-size="10.00">+</text>
<text text-anchor="start" x="192.5" y="-613.5" font-family="Helvetica,sans-Serif" font-size="10.00">unmap_buffer</text>
<text text-anchor="start" x="179.5" y="-598.5" font-family="Helvetica,sans-Serif" font-size="10.00">+</text>
<text text-anchor="start" x="192.5" y="-598.5" font-family="Helvetica,sans-Serif" font-size="10.00">wait_fenced</text>
<text text-anchor="start" x="249.5" y="-583.5" font-family="Helvetica,sans-Serif" font-size="10.00"> </text>
<polygon fill="#666666" stroke="#666666" points="175.5,-818.5 175.5,-818.5 327.5,-818.5 327.5,-818.5 175.5,-818.5"/>
<polygon fill="#666666" stroke="#666666" points="175.5,-593.5 175.5,-593.5 190.5,-593.5 190.5,-593.5 175.5,-593.5"/>
<polygon fill="#666666" stroke="#666666" points="190.5,-593.5 190.5,-593.5 327.5,-593.5 327.5,-593.5 190.5,-593.5"/>
<polygon fill="none" stroke="#666666" points="175.5,-576.5 175.5,-846.5 327.5,-846.5 327.5,-576.5 175.5,-576.5"/>
</a>
</g>
</g>
<!-- Node4&#45;&gt;Node3 -->
<g id="edge4_Node000003_Node000004" class="edge">
<title>Node4&#45;&gt;Node3</title>
<g id="a_edge4_Node000003_Node000004"><a xlink:title=" ">
<path fill="none" stroke="#63b8ff" d="M251.5,-576.18C251.5,-555.02 251.5,-533.25 251.5,-512.39"/>
<polygon fill="none" stroke="#63b8ff" points="251.5,-512.22 247.5,-506.22 251.5,-500.22 255.5,-506.22 251.5,-512.22"/>
</a>
</g>
<text text-anchor="middle" x="297" y="-521" font-family="Helvetica,sans-Serif" font-size="10.00" fill="grey"> &#45;m_buffer_service</text>
</g>
</g>
</svg>

<g id="navigator" transform="translate(0 0)" fill="#404254">
  <rect fill="#f2f5e9" fill-opacity="0.5" stroke="#606060" stroke-width=".5" x="0" y="0" width="60" height="60"/>
  <use id="zoomplus" xlink:href="#zoomPlus" x="17" y="9" onmousedown="handleZoom(evt,'in')"/>
  <use id="zoomminus" xlink:href="#zoomMin" x="42" y="9" onmousedown="handleZoom(evt,'out')"/>
  <use id="reset" xlink:href="#resetDef" x="30" y="36" onmousedown="handleReset()"/>
   <use id="arrowup" xlink:href="#arrowUp" x="0" y="0" onmousedown="handlePan(0,-1)"/>
  <use id="arrowright" xlink:href="#arrowRight" x="0" y="0" onmousedown="handlePan(1,0)"/>
  <use id="arrowdown" xlink:href="#arrowDown" x="0" y="0" onmousedown="handlePan(0,1)"/>
  <use id="arrowleft" xlink:href="#arrowLeft" x="0" y="0" onmousedown="handlePan(-1,0)"/>
</g>
<svg viewBox="0 0 15 15" width="100%" height="30px" preserveAspectRatio="xMaxYMin meet">
 <g id="arrow_out" transform="scale(0.3 0.3)">
  <a xlink:href="classMayaFlux_1_1Buffers_1_1BufferProcessingControl__coll__graph_org.svg" target="_base">
   <rect id="button" ry="5" rx="5" y="6" x="6" height="38" width="38"
        fill="#f2f5e9" fill-opacity="0.5" stroke="#606060" stroke-width="1.0"/>
   <path id="arrow"
     d="M 11.500037,31.436501 C 11.940474,20.09759 22.043105,11.32322 32.158766,21.979434 L 37.068811,17.246167 C 37.068811,17.246167 37.088388,32 37.088388,32 L 22.160133,31.978069 C 22.160133,31.978069 26.997745,27.140456 26.997745,27.140456 C 18.528582,18.264221 13.291696,25.230495 11.500037,31.436501 z"
     style="fill:#404040;"/>
  </a>
 </g>
</svg>

<style type='text/css'>
<![CDATA[
[data-mouse-over-selected='false'] { opacity: 0.7; }
[data-mouse-over-selected='true']  { opacity: 1.0; }
]]>
</style>
<script type="application/ecmascript"><![CDATA[
document.addEventListener('DOMContentLoaded', (event) => {
  highlightEdges();
  highlightAdjacentNodes();
});
]]></script>
</svg>
