<?xml version="1.0" encoding="UTF-8" standalone="no"?>
<!DOCTYPE svg PUBLIC "-//W3C//DTD SVG 1.1//EN"
 "http://www.w3.org/Graphics/SVG/1.1/DTD/svg11.dtd">
<!-- Generated by graphviz version 2.43.0 (0)
 -->
<!-- Title: MayaFlux::Yantra::GpuDispatchCore::ensure_gpu_ready Pages: 1 -->
<svg width="775pt" height="268pt"
 viewBox="0.00 0.00 775.00 267.50" xmlns="http://www.w3.org/2000/svg" xmlns:xlink="http://www.w3.org/1999/xlink">
<g id="graph0" class="graph" transform="scale(1 1) rotate(0) translate(4 263.5)">
<title>MayaFlux::Yantra::GpuDispatchCore::ensure_gpu_ready</title>
<!-- Node1 -->
<g id="Node000001" class="node">
<title>Node1</title>
<g id="a_Node000001"><a xlink:title="Ensure GPU resources are initialised.">
<polygon fill="#999999" stroke="#666666" points="169,-187.5 0,-187.5 0,-157.5 169,-157.5 169,-187.5"/>
<text text-anchor="start" x="8" y="-175.5" font-family="Helvetica,sans-Serif" font-size="10.00">MayaFlux::Yantra::GpuDispatch</text>
<text text-anchor="middle" x="84.5" y="-164.5" font-family="Helvetica,sans-Serif" font-size="10.00">Core::ensure_gpu_ready</text>
</a>
</g>
</g>
<!-- Node2 -->
<g id="Node000002" class="node">
<title>Node2</title>
<g id="a_Node000002"><a xlink:href="classMayaFlux_1_1Yantra_1_1GpuDispatchCore_af387940eb126638c393e0ad18760bbdf.html#af387940eb126638c393e0ad18760bbdf" target="_top" xlink:title="Declare the storage buffers the shader expects.">
<polygon fill="white" stroke="#666666" points="375,-259.5 206,-259.5 206,-229.5 375,-229.5 375,-259.5"/>
<text text-anchor="start" x="214" y="-247.5" font-family="Helvetica,sans-Serif" font-size="10.00">MayaFlux::Yantra::GpuDispatch</text>
<text text-anchor="middle" x="290.5" y="-236.5" font-family="Helvetica,sans-Serif" font-size="10.00">Core::declare_buffer_bindings</text>
</a>
</g>
</g>
<!-- Node1&#45;&gt;Node2 -->
<g id="edge1_Node000001_Node000002" class="edge">
<title>Node1&#45;&gt;Node2</title>
<g id="a_edge1_Node000001_Node000002"><a xlink:title=" ">
<path fill="none" stroke="#63b8ff" d="M120.17,-187.55C143.83,-197.54 176.02,-210.59 205,-220.5 210.97,-222.54 217.21,-224.55 223.48,-226.48"/>
<polygon fill="#63b8ff" stroke="#63b8ff" points="222.75,-229.91 233.34,-229.44 224.77,-223.21 222.75,-229.91"/>
</a>
</g>
</g>
<!-- Node3 -->
<g id="Node000003" class="node">
<title>Node3</title>
<g id="a_Node000003"><a xlink:href="classMayaFlux_1_1Yantra_1_1GpuDispatchCore_a73fff9156201c282780b637feeb7f7e1.html#a73fff9156201c282780b637feeb7f7e1" target="_top" xlink:title="The key used for this context&#39;s GpuResourceManager unit.">
<polygon fill="white" stroke="#666666" points="375,-211.5 206,-211.5 206,-181.5 375,-181.5 375,-211.5"/>
<text text-anchor="start" x="214" y="-199.5" font-family="Helvetica,sans-Serif" font-size="10.00">MayaFlux::Yantra::GpuDispatch</text>
<text text-anchor="middle" x="290.5" y="-188.5" font-family="Helvetica,sans-Serif" font-size="10.00">Core::dispatch_key</text>
</a>
</g>
</g>
<!-- Node1&#45;&gt;Node3 -->
<g id="edge2_Node000001_Node000003" class="edge">
<title>Node1&#45;&gt;Node3</title>
<g id="a_edge2_Node000001_Node000003"><a xlink:title=" ">
<path fill="none" stroke="#63b8ff" d="M169.06,-182.33C177.86,-183.37 186.84,-184.42 195.74,-185.47"/>
<polygon fill="#63b8ff" stroke="#63b8ff" points="195.4,-188.95 205.74,-186.65 196.21,-182 195.4,-188.95"/>
</a>
</g>
</g>
<!-- Node4 -->
<g id="Node000004" class="node">
<title>Node4</title>
<g id="a_Node000004"><a xlink:href="classMayaFlux_1_1Yantra_1_1GpuResourceManager_a249701fcf6fc8a0d9aad6918397b8f3f.html#a249701fcf6fc8a0d9aad6918397b8f3f" target="_top" xlink:title="Create (or confirm existing) pipeline for the given key.">
<polygon fill="white" stroke="#666666" points="376,-115.5 205,-115.5 205,-85.5 376,-85.5 376,-115.5"/>
<text text-anchor="start" x="213" y="-103.5" font-family="Helvetica,sans-Serif" font-size="10.00">MayaFlux::Yantra::GpuResource</text>
<text text-anchor="middle" x="290.5" y="-92.5" font-family="Helvetica,sans-Serif" font-size="10.00">Manager::initialise</text>
</a>
</g>
</g>
<!-- Node1&#45;&gt;Node4 -->
<g id="edge3_Node000001_Node000004" class="edge">
<title>Node1&#45;&gt;Node4</title>
<g id="a_edge3_Node000001_Node000004"><a xlink:title=" ">
<path fill="none" stroke="#63b8ff" d="M120.17,-157.45C143.83,-147.46 176.02,-134.41 205,-124.5 210.97,-122.46 217.21,-120.45 223.48,-118.52"/>
<polygon fill="#63b8ff" stroke="#63b8ff" points="224.77,-121.79 233.34,-115.56 222.75,-115.09 224.77,-121.79"/>
</a>
</g>
</g>
<!-- Node11 -->
<g id="Node000011" class="node">
<title>Node11</title>
<g id="a_Node000011"><a xlink:href="classMayaFlux_1_1Yantra_1_1GpuResourceManager_a2dfd32e6a6365a401e48b634d287852f.html#a2dfd32e6a6365a401e48b634d287852f" target="_top" xlink:title=" ">
<polygon fill="white" stroke="#666666" points="376,-163.5 205,-163.5 205,-133.5 376,-133.5 376,-163.5"/>
<text text-anchor="start" x="213" y="-151.5" font-family="Helvetica,sans-Serif" font-size="10.00">MayaFlux::Yantra::GpuResource</text>
<text text-anchor="middle" x="290.5" y="-140.5" font-family="Helvetica,sans-Serif" font-size="10.00">Manager::is_ready</text>
</a>
</g>
</g>
<!-- Node1&#45;&gt;Node11 -->
<g id="edge10_Node000001_Node000011" class="edge">
<title>Node1&#45;&gt;Node11</title>
<g id="a_edge10_Node000001_Node000011"><a xlink:title=" ">
<path fill="none" stroke="#63b8ff" d="M169.06,-162.67C177.53,-161.67 186.16,-160.66 194.73,-159.65"/>
<polygon fill="#63b8ff" stroke="#63b8ff" points="195.22,-163.12 204.75,-158.47 194.4,-156.16 195.22,-163.12"/>
</a>
</g>
</g>
<!-- Node5 -->
<g id="Node000005" class="node">
<title>Node5</title>
<g id="a_Node000005"><a xlink:href="classMayaFlux_1_1Yantra_1_1GpuResourceManager_af582f5210754d7530e9dbaad98f1859a.html#af582f5210754d7530e9dbaad98f1859a" target="_top" xlink:title=" ">
<polygon fill="white" stroke="#666666" points="583,-163.5 412,-163.5 412,-133.5 583,-133.5 583,-163.5"/>
<text text-anchor="start" x="420" y="-151.5" font-family="Helvetica,sans-Serif" font-size="10.00">MayaFlux::Yantra::GpuResource</text>
<text text-anchor="middle" x="497.5" y="-140.5" font-family="Helvetica,sans-Serif" font-size="10.00">Manager::find_unit</text>
</a>
</g>
</g>
<!-- Node4&#45;&gt;Node5 -->
<g id="edge4_Node000004_Node000005" class="edge">
<title>Node4&#45;&gt;Node5</title>
<g id="a_edge4_Node000004_Node000005"><a xlink:title=" ">
<path fill="none" stroke="#63b8ff" d="M355.8,-115.56C376.98,-120.51 400.7,-126.07 422.54,-131.18"/>
<polygon fill="#63b8ff" stroke="#63b8ff" points="421.89,-134.63 432.43,-133.5 423.49,-127.81 421.89,-134.63"/>
</a>
</g>
</g>
<!-- Node6 -->
<g id="Node000006" class="node">
<title>Node6</title>
<g id="a_Node000006"><a xlink:href="namespaceMayaFlux_1_1Portal_1_1Graphics_af50ca0aa0cb7511c99eaf758430efdce.html#af50ca0aa0cb7511c99eaf758430efdce" target="_top" xlink:title=" ">
<polygon fill="white" stroke="#666666" points="571.5,-115.5 423.5,-115.5 423.5,-85.5 571.5,-85.5 571.5,-115.5"/>
<text text-anchor="start" x="431.5" y="-103.5" font-family="Helvetica,sans-Serif" font-size="10.00">MayaFlux::Portal::Graphics</text>
<text text-anchor="middle" x="497.5" y="-92.5" font-family="Helvetica,sans-Serif" font-size="10.00">::get_compute_press</text>
</a>
</g>
</g>
<!-- Node4&#45;&gt;Node6 -->
<g id="edge5_Node000004_Node000006" class="edge">
<title>Node4&#45;&gt;Node6</title>
<g id="a_edge5_Node000004_Node000006"><a xlink:title=" ">
<path fill="none" stroke="#63b8ff" d="M376.06,-100.5C388.3,-100.5 400.89,-100.5 413.1,-100.5"/>
<polygon fill="#63b8ff" stroke="#63b8ff" points="413.25,-104 423.25,-100.5 413.25,-97 413.25,-104"/>
</a>
</g>
</g>
<!-- Node8 -->
<g id="Node000008" class="node">
<title>Node8</title>
<g id="a_Node000008"><a xlink:href="namespaceMayaFlux_1_1Portal_1_1Graphics_a715d57394465ff2924727d7c82d87e7b.html#a715d57394465ff2924727d7c82d87e7b" target="_top" xlink:title="Get the global shader compiler instance.">
<polygon fill="white" stroke="#666666" points="571.5,-67.5 423.5,-67.5 423.5,-37.5 571.5,-37.5 571.5,-67.5"/>
<text text-anchor="start" x="431.5" y="-55.5" font-family="Helvetica,sans-Serif" font-size="10.00">MayaFlux::Portal::Graphics</text>
<text text-anchor="middle" x="497.5" y="-44.5" font-family="Helvetica,sans-Serif" font-size="10.00">::get_shader_foundry</text>
</a>
</g>
</g>
<!-- Node4&#45;&gt;Node8 -->
<g id="edge7_Node000004_Node000008" class="edge">
<title>Node4&#45;&gt;Node8</title>
<g id="a_edge7_Node000004_Node000008"><a xlink:title=" ">
<path fill="none" stroke="#63b8ff" d="M355.8,-85.44C376.98,-80.49 400.7,-74.93 422.54,-69.82"/>
<polygon fill="#63b8ff" stroke="#63b8ff" points="423.49,-73.19 432.43,-67.5 421.89,-66.37 423.49,-73.19"/>
</a>
</g>
</g>
<!-- Node10 -->
<g id="Node000010" class="node">
<title>Node10</title>
<g id="a_Node000010"><a xlink:href="namespaceMayaFlux_a08fa9b6412b634215b72b52676318691.html#a08fa9b6412b634215b72b52676318691" target="_top" xlink:title=" ">
<polygon fill="white" stroke="#666666" points="555,-19 440,-19 440,0 555,0 555,-19"/>
<text text-anchor="middle" x="497.5" y="-7" font-family="Helvetica,sans-Serif" font-size="10.00">MayaFlux::is_image</text>
</a>
</g>
</g>
<!-- Node4&#45;&gt;Node10 -->
<g id="edge9_Node000004_Node000010" class="edge">
<title>Node4&#45;&gt;Node10</title>
<g id="a_edge9_Node000004_Node000010"><a xlink:title=" ">
<path fill="none" stroke="#63b8ff" d="M312.2,-85.33C335.39,-69.01 374.66,-43.41 412,-28.5 418.38,-25.95 425.17,-23.71 432.03,-21.74"/>
<polygon fill="#63b8ff" stroke="#63b8ff" points="433.33,-25.02 442.08,-19.06 431.52,-18.26 433.33,-25.02"/>
</a>
</g>
</g>
<!-- Node7 -->
<g id="Node000007" class="node">
<title>Node7</title>
<g id="a_Node000007"><a xlink:href="classMayaFlux_1_1Portal_1_1Graphics_1_1ComputePress_a89b259adf28ef041294928959e03fa9c.html#a89b259adf28ef041294928959e03fa9c" target="_top" xlink:title=" ">
<polygon fill="white" stroke="#666666" points="767,-115.5 619,-115.5 619,-85.5 767,-85.5 767,-115.5"/>
<text text-anchor="start" x="627" y="-103.5" font-family="Helvetica,sans-Serif" font-size="10.00">MayaFlux::Portal::Graphics</text>
<text text-anchor="middle" x="693" y="-92.5" font-family="Helvetica,sans-Serif" font-size="10.00">::ComputePress::instance</text>
</a>
</g>
</g>
<!-- Node6&#45;&gt;Node7 -->
<g id="edge6_Node000006_Node000007" class="edge">
<title>Node6&#45;&gt;Node7</title>
<g id="a_edge6_Node000006_Node000007"><a xlink:title=" ">
<path fill="none" stroke="#63b8ff" d="M571.65,-100.5C583.69,-100.5 596.25,-100.5 608.52,-100.5"/>
<polygon fill="#63b8ff" stroke="#63b8ff" points="608.74,-104 618.74,-100.5 608.74,-97 608.74,-104"/>
</a>
</g>
</g>
<!-- Node9 -->
<g id="Node000009" class="node">
<title>Node9</title>
<g id="a_Node000009"><a xlink:href="classMayaFlux_1_1Portal_1_1Graphics_1_1ShaderFoundry_ab22eaae6b8210236918b85f409fc4c49.html#ab22eaae6b8210236918b85f409fc4c49" target="_top" xlink:title=" ">
<polygon fill="white" stroke="#666666" points="767,-67.5 619,-67.5 619,-37.5 767,-37.5 767,-67.5"/>
<text text-anchor="start" x="627" y="-55.5" font-family="Helvetica,sans-Serif" font-size="10.00">MayaFlux::Portal::Graphics</text>
<text text-anchor="middle" x="693" y="-44.5" font-family="Helvetica,sans-Serif" font-size="10.00">::ShaderFoundry::instance</text>
</a>
</g>
</g>
<!-- Node8&#45;&gt;Node9 -->
<g id="edge8_Node000008_Node000009" class="edge">
<title>Node8&#45;&gt;Node9</title>
<g id="a_edge8_Node000008_Node000009"><a xlink:title=" ">
<path fill="none" stroke="#63b8ff" d="M571.65,-52.5C583.69,-52.5 596.25,-52.5 608.52,-52.5"/>
<polygon fill="#63b8ff" stroke="#63b8ff" points="608.74,-56 618.74,-52.5 608.74,-49 608.74,-56"/>
</a>
</g>
</g>
<!-- Node11&#45;&gt;Node5 -->
<g id="edge11_Node000011_Node000005" class="edge">
<title>Node11&#45;&gt;Node5</title>
<g id="a_edge11_Node000011_Node000005"><a xlink:title=" ">
<path fill="none" stroke="#63b8ff" d="M376.06,-148.5C384.55,-148.5 393.2,-148.5 401.78,-148.5"/>
<polygon fill="#63b8ff" stroke="#63b8ff" points="401.8,-152 411.8,-148.5 401.8,-145 401.8,-152"/>
</a>
</g>
</g>
</g>
</svg>
