<?xml version="1.0" encoding="UTF-8" standalone="no"?>
<!DOCTYPE svg PUBLIC "-//W3C//DTD SVG 1.1//EN"
 "http://www.w3.org/Graphics/SVG/1.1/DTD/svg11.dtd">
<!-- Generated by graphviz version 2.43.0 (0)
 -->
<!-- Title: FormaBindingsProcessor.cpp Pages: 1 -->
<svg width="1683pt" height="676pt"
 viewBox="0.00 0.00 1683.00 676.00" xmlns="http://www.w3.org/2000/svg" xmlns:xlink="http://www.w3.org/1999/xlink">
<g id="graph0" class="graph" transform="scale(1 1) rotate(0) translate(4 672)">
<title>FormaBindingsProcessor.cpp</title>
<!-- Node1 -->
<g id="Node000001" class="node">
<title>Node1</title>
<g id="a_Node000001"><a xlink:title=" ">
<polygon fill="#999999" stroke="#666666" points="864.5,-668 708.5,-668 708.5,-649 864.5,-649 864.5,-668"/>
<text text-anchor="middle" x="786.5" y="-656" font-family="Helvetica,sans-Serif" font-size="10.00">FormaBindingsProcessor.cpp</text>
</a>
</g>
</g>
<!-- Node2 -->
<g id="Node000002" class="node">
<title>Node2</title>
<g id="a_Node000002"><a xlink:href="FormaBindingsProcessor_8hpp.html" target="_top" xlink:title=" ">
<polygon fill="white" stroke="#666666" points="919,-607.5 762,-607.5 762,-588.5 919,-588.5 919,-607.5"/>
<text text-anchor="middle" x="840.5" y="-595.5" font-family="Helvetica,sans-Serif" font-size="10.00">FormaBindingsProcessor.hpp</text>
</a>
</g>
</g>
<!-- Node1&#45;&gt;Node2 -->
<g id="edge1_Node000001_Node000002" class="edge">
<title>Node1&#45;&gt;Node2</title>
<g id="a_edge1_Node000001_Node000002"><a xlink:title=" ">
<path fill="none" stroke="#63b8ff" d="M794.47,-648.87C802.6,-640.05 815.43,-626.16 825.48,-615.27"/>
<polygon fill="#63b8ff" stroke="#63b8ff" points="828.29,-617.39 832.5,-607.67 823.14,-612.64 828.29,-617.39"/>
</a>
</g>
</g>
<!-- Node4 -->
<g id="Node000004" class="node">
<title>Node4</title>
<g id="a_Node000004"><a xlink:href="StagingUtils_8hpp.html" target="_top" xlink:title=" ">
<polygon fill="white" stroke="#666666" points="804.5,-481 662.5,-481 662.5,-451 804.5,-451 804.5,-481"/>
<text text-anchor="start" x="670.5" y="-469" font-family="Helvetica,sans-Serif" font-size="10.00">MayaFlux/Buffers/Staging</text>
<text text-anchor="middle" x="733.5" y="-458" font-family="Helvetica,sans-Serif" font-size="10.00">/StagingUtils.hpp</text>
</a>
</g>
</g>
<!-- Node1&#45;&gt;Node4 -->
<g id="edge46_Node000001_Node000004" class="edge">
<title>Node1&#45;&gt;Node4</title>
<g id="a_edge46_Node000001_Node000004"><a xlink:title=" ">
<path fill="none" stroke="#63b8ff" d="M777.63,-648.85C769.64,-640.48 758.28,-627.02 752.5,-613 735.92,-572.77 732.99,-521.47 732.89,-491.63"/>
<polygon fill="#63b8ff" stroke="#63b8ff" points="736.39,-491.33 732.96,-481.3 729.39,-491.28 736.39,-491.33"/>
</a>
</g>
</g>
<!-- Node5 -->
<g id="Node000005" class="node">
<title>Node5</title>
<g id="a_Node000005"><a xlink:href="VKBuffer_8hpp.html" target="_top" xlink:title=" ">
<polygon fill="white" stroke="#666666" points="817.5,-343.5 649.5,-343.5 649.5,-324.5 817.5,-324.5 817.5,-343.5"/>
<text text-anchor="middle" x="733.5" y="-331.5" font-family="Helvetica,sans-Serif" font-size="10.00">MayaFlux/Buffers/VKBuffer.hpp</text>
</a>
</g>
</g>
<!-- Node1&#45;&gt;Node5 -->
<g id="edge47_Node000001_Node000005" class="edge">
<title>Node1&#45;&gt;Node5</title>
<g id="a_edge47_Node000001_Node000005"><a xlink:title=" ">
<path fill="none" stroke="#63b8ff" d="M758.62,-648.9C714.74,-633.42 634.5,-596.45 634.5,-533 634.5,-533 634.5,-533 634.5,-465 634.5,-414.35 682.65,-371.12 711.79,-349.6"/>
<polygon fill="#63b8ff" stroke="#63b8ff" points="714.04,-352.29 720.15,-343.63 709.98,-346.59 714.04,-352.29"/>
</a>
</g>
</g>
<!-- Node19 -->
<g id="Node000019" class="node">
<title>Node19</title>
<g id="a_Node000019"><a xlink:href="Archivist_8hpp.html" target="_top" xlink:title=" ">
<polygon fill="white" stroke="#666666" points="366.5,-343.5 198.5,-343.5 198.5,-324.5 366.5,-324.5 366.5,-343.5"/>
<text text-anchor="middle" x="282.5" y="-331.5" font-family="Helvetica,sans-Serif" font-size="10.00">MayaFlux/Journal/Archivist.hpp</text>
</a>
</g>
</g>
<!-- Node1&#45;&gt;Node19 -->
<g id="edge48_Node000001_Node000019" class="edge">
<title>Node1&#45;&gt;Node19</title>
<g id="a_edge48_Node000001_Node000019"><a xlink:title=" ">
<path fill="none" stroke="#63b8ff" d="M708.46,-652.02C579.37,-640.79 335.5,-609.46 335.5,-533 335.5,-533 335.5,-533 335.5,-465 335.5,-421.75 310.04,-376 294.41,-351.99"/>
<polygon fill="#63b8ff" stroke="#63b8ff" points="297.27,-349.98 288.79,-343.64 291.47,-353.89 297.27,-349.98"/>
</a>
</g>
</g>
<!-- Node40 -->
<g id="Node000040" class="node">
<title>Node40</title>
<g id="a_Node000040"><a xlink:href="BackendRegistry_8hpp.html" target="_top" xlink:title=" ">
<polygon fill="white" stroke="#666666" points="1454.5,-85 1302.5,-85 1302.5,-55 1454.5,-55 1454.5,-85"/>
<text text-anchor="start" x="1310.5" y="-73" font-family="Helvetica,sans-Serif" font-size="10.00">MayaFlux/Registry/Backend</text>
<text text-anchor="middle" x="1378.5" y="-62" font-family="Helvetica,sans-Serif" font-size="10.00">Registry.hpp</text>
</a>
</g>
</g>
<!-- Node1&#45;&gt;Node40 -->
<g id="edge49_Node000001_Node000040" class="edge">
<title>Node1&#45;&gt;Node40</title>
<g id="a_edge49_Node000001_Node000040"><a xlink:title=" ">
<path fill="none" stroke="#63b8ff" d="M864.5,-651.98C1049.51,-637.84 1499.5,-596.89 1499.5,-533 1499.5,-533 1499.5,-533 1499.5,-201 1499.5,-150.83 1450.62,-111.92 1414.99,-90.22"/>
<polygon fill="#63b8ff" stroke="#63b8ff" points="1416.65,-87.14 1406.26,-85.08 1413.1,-93.17 1416.65,-87.14"/>
</a>
</g>
</g>
<!-- Node41 -->
<g id="Node000041" class="node">
<title>Node41</title>
<g id="a_Node000041"><a xlink:href="BufferService_8hpp.html" target="_top" xlink:title=" ">
<polygon fill="white" stroke="#666666" points="1675,-613 1528,-613 1528,-583 1675,-583 1675,-613"/>
<text text-anchor="start" x="1536" y="-601" font-family="Helvetica,sans-Serif" font-size="10.00">MayaFlux/Registry/Service</text>
<text text-anchor="middle" x="1601.5" y="-590" font-family="Helvetica,sans-Serif" font-size="10.00">/BufferService.hpp</text>
</a>
</g>
</g>
<!-- Node1&#45;&gt;Node41 -->
<g id="edge51_Node000001_Node000041" class="edge">
<title>Node1&#45;&gt;Node41</title>
<g id="a_edge51_Node000001_Node000041"><a xlink:title=" ">
<path fill="none" stroke="#63b8ff" d="M864.71,-655.19C998.13,-650.7 1278.14,-638.86 1513.5,-613 1514.8,-612.86 1516.1,-612.71 1517.42,-612.56"/>
<polygon fill="#63b8ff" stroke="#63b8ff" points="1518.14,-615.99 1527.63,-611.28 1517.27,-609.05 1518.14,-615.99"/>
</a>
</g>
</g>
<!-- Node3 -->
<g id="Node000003" class="node">
<title>Node3</title>
<g id="a_Node000003"><a xlink:href="ShaderProcessor_8hpp.html" target="_top" xlink:title=" ">
<polygon fill="white" stroke="#666666" points="912.5,-547 768.5,-547 768.5,-517 912.5,-517 912.5,-547"/>
<text text-anchor="start" x="776.5" y="-535" font-family="Helvetica,sans-Serif" font-size="10.00">MayaFlux/Buffers/Shaders</text>
<text text-anchor="middle" x="840.5" y="-524" font-family="Helvetica,sans-Serif" font-size="10.00">/ShaderProcessor.hpp</text>
</a>
</g>
</g>
<!-- Node2&#45;&gt;Node3 -->
<g id="edge2_Node000002_Node000003" class="edge">
<title>Node2&#45;&gt;Node3</title>
<g id="a_edge2_Node000002_Node000003"><a xlink:title=" ">
<path fill="none" stroke="#63b8ff" d="M840.5,-588.37C840.5,-580.49 840.5,-568.45 840.5,-557.6"/>
<polygon fill="#63b8ff" stroke="#63b8ff" points="844,-557.36 840.5,-547.36 837,-557.36 844,-557.36"/>
</a>
</g>
</g>
<!-- Node2&#45;&gt;Node19 -->
<g id="edge45_Node000002_Node000019" class="edge">
<title>Node2&#45;&gt;Node19</title>
<g id="a_edge45_Node000002_Node000019"><a xlink:title=" ">
<path fill="none" stroke="#63b8ff" d="M821.51,-588.45C764.42,-562.7 589.37,-483.44 445.5,-415 397,-391.93 340.86,-364.13 308.73,-348.12"/>
<polygon fill="#63b8ff" stroke="#63b8ff" points="310.08,-344.88 299.56,-343.55 306.95,-351.14 310.08,-344.88"/>
</a>
</g>
</g>
<!-- Node29 -->
<g id="Node000029" class="node">
<title>Node29</title>
<g id="a_Node000029"><a xlink:href="Mapped_8hpp.html" target="_top" xlink:title=" ">
<polygon fill="white" stroke="#666666" points="1088.5,-547 956.5,-547 956.5,-517 1088.5,-517 1088.5,-547"/>
<text text-anchor="start" x="964.5" y="-535" font-family="Helvetica,sans-Serif" font-size="10.00">MayaFlux/Portal/Forma</text>
<text text-anchor="middle" x="1022.5" y="-524" font-family="Helvetica,sans-Serif" font-size="10.00">/Primitives/Mapped.hpp</text>
</a>
</g>
</g>
<!-- Node2&#45;&gt;Node29 -->
<g id="edge32_Node000002_Node000029" class="edge">
<title>Node2&#45;&gt;Node29</title>
<g id="a_edge32_Node000002_Node000029"><a xlink:title=" ">
<path fill="none" stroke="#63b8ff" d="M865.05,-588.37C892.54,-578.7 937.83,-562.77 972.79,-550.48"/>
<polygon fill="#63b8ff" stroke="#63b8ff" points="974.09,-553.73 982.36,-547.12 971.76,-547.13 974.09,-553.73"/>
</a>
</g>
</g>
<!-- Node3&#45;&gt;Node4 -->
<g id="edge3_Node000003_Node000004" class="edge">
<title>Node3&#45;&gt;Node4</title>
<g id="a_edge3_Node000003_Node000004"><a xlink:title=" ">
<path fill="none" stroke="#63b8ff" d="M817.02,-516.95C801.97,-507.95 782.23,-496.14 765.72,-486.27"/>
<polygon fill="#63b8ff" stroke="#63b8ff" points="767.31,-483.14 756.93,-481.01 763.71,-489.15 767.31,-483.14"/>
</a>
</g>
</g>
<!-- Node26 -->
<g id="Node000026" class="node">
<title>Node26</title>
<g id="a_Node000026"><a xlink:href="ComputePress_8hpp.html" target="_top" xlink:title=" ">
<polygon fill="white" stroke="#666666" points="964.5,-481 822.5,-481 822.5,-451 964.5,-451 964.5,-481"/>
<text text-anchor="start" x="830.5" y="-469" font-family="Helvetica,sans-Serif" font-size="10.00">MayaFlux/Portal/Graphics</text>
<text text-anchor="middle" x="893.5" y="-458" font-family="Helvetica,sans-Serif" font-size="10.00">/ComputePress.hpp</text>
</a>
</g>
</g>
<!-- Node3&#45;&gt;Node26 -->
<g id="edge27_Node000003_Node000026" class="edge">
<title>Node3&#45;&gt;Node26</title>
<g id="a_edge27_Node000003_Node000026"><a xlink:title=" ">
<path fill="none" stroke="#63b8ff" d="M852.26,-516.8C859.06,-508.59 867.74,-498.1 875.39,-488.87"/>
<polygon fill="#63b8ff" stroke="#63b8ff" points="878.09,-491.1 881.77,-481.16 872.7,-486.63 878.09,-491.1"/>
</a>
</g>
</g>
<!-- Node4&#45;&gt;Node5 -->
<g id="edge4_Node000004_Node000005" class="edge">
<title>Node4&#45;&gt;Node5</title>
<g id="a_edge4_Node000004_Node000005"><a xlink:title=" ">
<path fill="none" stroke="#63b8ff" d="M733.5,-450.84C733.5,-427.34 733.5,-380.26 733.5,-353.93"/>
<polygon fill="#63b8ff" stroke="#63b8ff" points="737,-353.75 733.5,-343.75 730,-353.75 737,-353.75"/>
</a>
</g>
</g>
<!-- Node17 -->
<g id="Node000017" class="node">
<title>Node17</title>
<g id="a_Node000017"><a xlink:href="DataAccess_8hpp.html" target="_top" xlink:title=" ">
<polygon fill="white" stroke="#666666" points="606,-415 455,-415 455,-385 606,-385 606,-415"/>
<text text-anchor="start" x="463" y="-403" font-family="Helvetica,sans-Serif" font-size="10.00">MayaFlux/Kakshya/NDData</text>
<text text-anchor="middle" x="530.5" y="-392" font-family="Helvetica,sans-Serif" font-size="10.00">/DataAccess.hpp</text>
</a>
</g>
</g>
<!-- Node4&#45;&gt;Node17 -->
<g id="edge17_Node000004_Node000017" class="edge">
<title>Node4&#45;&gt;Node17</title>
<g id="a_edge17_Node000004_Node000017"><a xlink:title=" ">
<path fill="none" stroke="#63b8ff" d="M688.95,-450.95C658.28,-441.28 617.34,-428.38 584.77,-418.11"/>
<polygon fill="#63b8ff" stroke="#63b8ff" points="585.53,-414.68 574.95,-415.01 583.43,-421.36 585.53,-414.68"/>
</a>
</g>
</g>
<!-- Node6 -->
<g id="Node000006" class="node">
<title>Node6</title>
<g id="a_Node000006"><a xlink:href="Buffer_8hpp.html" target="_top" xlink:title=" ">
<polygon fill="white" stroke="#666666" points="614.5,-277.5 548.5,-277.5 548.5,-258.5 614.5,-258.5 614.5,-277.5"/>
<text text-anchor="middle" x="581.5" y="-265.5" font-family="Helvetica,sans-Serif" font-size="10.00">Buffer.hpp</text>
</a>
</g>
</g>
<!-- Node5&#45;&gt;Node6 -->
<g id="edge5_Node000005_Node000006" class="edge">
<title>Node5&#45;&gt;Node6</title>
<g id="a_edge5_Node000005_Node000006"><a xlink:title=" ">
<path fill="none" stroke="#63b8ff" d="M713,-324.37C686.94,-313.39 641.72,-294.36 611.71,-281.72"/>
<polygon fill="#63b8ff" stroke="#63b8ff" points="612.73,-278.35 602.16,-277.7 610.02,-284.81 612.73,-278.35"/>
</a>
</g>
</g>
<!-- Node7 -->
<g id="Node000007" class="node">
<title>Node7</title>
<g id="a_Node000007"><a xlink:href="BufferProcessor_8hpp.html" target="_top" xlink:title=" ">
<polygon fill="white" stroke="#666666" points="834.5,-277.5 632.5,-277.5 632.5,-258.5 834.5,-258.5 834.5,-277.5"/>
<text text-anchor="middle" x="733.5" y="-265.5" font-family="Helvetica,sans-Serif" font-size="10.00">MayaFlux/Buffers/BufferProcessor.hpp</text>
</a>
</g>
</g>
<!-- Node5&#45;&gt;Node7 -->
<g id="edge6_Node000005_Node000007" class="edge">
<title>Node5&#45;&gt;Node7</title>
<g id="a_edge6_Node000005_Node000007"><a xlink:title=" ">
<path fill="none" stroke="#63b8ff" d="M733.5,-324.37C733.5,-315.16 733.5,-300.29 733.5,-288.27"/>
<polygon fill="#63b8ff" stroke="#63b8ff" points="737,-287.91 733.5,-277.91 730,-287.91 737,-287.91"/>
</a>
</g>
</g>
<!-- Node14 -->
<g id="Node000014" class="node">
<title>Node14</title>
<g id="a_Node000014"><a xlink:href="ShaderUtils_8hpp.html" target="_top" xlink:title=" ">
<polygon fill="white" stroke="#666666" points="994.5,-283 852.5,-283 852.5,-253 994.5,-253 994.5,-283"/>
<text text-anchor="start" x="860.5" y="-271" font-family="Helvetica,sans-Serif" font-size="10.00">MayaFlux/Portal/Graphics</text>
<text text-anchor="middle" x="923.5" y="-260" font-family="Helvetica,sans-Serif" font-size="10.00">/ShaderUtils.hpp</text>
</a>
</g>
</g>
<!-- Node5&#45;&gt;Node14 -->
<g id="edge13_Node000005_Node000014" class="edge">
<title>Node5&#45;&gt;Node14</title>
<g id="a_edge13_Node000005_Node000014"><a xlink:title=" ">
<path fill="none" stroke="#63b8ff" d="M759.12,-324.37C787.95,-314.66 835.51,-298.64 872.08,-286.32"/>
<polygon fill="#63b8ff" stroke="#63b8ff" points="873.23,-289.62 881.59,-283.12 871,-282.99 873.23,-289.62"/>
</a>
</g>
</g>
<!-- Node8 -->
<g id="Node000008" class="node">
<title>Node8</title>
<g id="a_Node000008"><a xlink:href="BufferUtils_8hpp.html" target="_top" xlink:title=" ">
<polygon fill="white" stroke="#666666" points="712,-211.5 623,-211.5 623,-192.5 712,-192.5 712,-211.5"/>
<text text-anchor="middle" x="667.5" y="-199.5" font-family="Helvetica,sans-Serif" font-size="10.00">BufferUtils.hpp</text>
</a>
</g>
</g>
<!-- Node7&#45;&gt;Node8 -->
<g id="edge7_Node000007_Node000008" class="edge">
<title>Node7&#45;&gt;Node8</title>
<g id="a_edge7_Node000007_Node000008"><a xlink:title=" ">
<path fill="none" stroke="#63b8ff" d="M724.6,-258.37C714.23,-248.31 696.87,-231.48 684.01,-219.01"/>
<polygon fill="#63b8ff" stroke="#63b8ff" points="686.3,-216.35 676.68,-211.91 681.43,-221.38 686.3,-216.35"/>
</a>
</g>
</g>
<!-- Node9 -->
<g id="Node000009" class="node">
<title>Node9</title>
<g id="a_Node000009"><a xlink:href="ProcessingTokens_8hpp.html" target="_top" xlink:title=" ">
<polygon fill="white" stroke="#666666" points="740.5,-151 594.5,-151 594.5,-121 740.5,-121 740.5,-151"/>
<text text-anchor="start" x="602.5" y="-139" font-family="Helvetica,sans-Serif" font-size="10.00">MayaFlux/Core/Processing</text>
<text text-anchor="middle" x="667.5" y="-128" font-family="Helvetica,sans-Serif" font-size="10.00">Tokens.hpp</text>
</a>
</g>
</g>
<!-- Node8&#45;&gt;Node9 -->
<g id="edge8_Node000008_Node000009" class="edge">
<title>Node8&#45;&gt;Node9</title>
<g id="a_edge8_Node000008_Node000009"><a xlink:title=" ">
<path fill="none" stroke="#63b8ff" d="M667.5,-192.37C667.5,-184.49 667.5,-172.45 667.5,-161.6"/>
<polygon fill="#63b8ff" stroke="#63b8ff" points="671,-161.36 667.5,-151.36 664,-161.36 671,-161.36"/>
</a>
</g>
</g>
<!-- Node10 -->
<g id="Node000010" class="node">
<title>Node10</title>
<g id="a_Node000010"><a xlink:href="VertexLayout_8hpp.html" target="_top" xlink:title=" ">
<polygon fill="white" stroke="#666666" points="958,-151 807,-151 807,-121 958,-121 958,-151"/>
<text text-anchor="start" x="815" y="-139" font-family="Helvetica,sans-Serif" font-size="10.00">MayaFlux/Kakshya/NDData</text>
<text text-anchor="middle" x="882.5" y="-128" font-family="Helvetica,sans-Serif" font-size="10.00">/VertexLayout.hpp</text>
</a>
</g>
</g>
<!-- Node8&#45;&gt;Node10 -->
<g id="edge9_Node000008_Node000010" class="edge">
<title>Node8&#45;&gt;Node10</title>
<g id="a_edge9_Node000008_Node000010"><a xlink:title=" ">
<path fill="none" stroke="#63b8ff" d="M696.5,-192.37C729.39,-182.58 783.85,-166.37 825.36,-154.01"/>
<polygon fill="#63b8ff" stroke="#63b8ff" points="826.49,-157.32 835.08,-151.12 824.5,-150.61 826.49,-157.32"/>
</a>
</g>
</g>
<!-- Node11 -->
<g id="Node000011" class="node">
<title>Node11</title>
<g id="a_Node000011"><a xlink:href="NDData_8hpp.html" target="_top" xlink:title=" ">
<polygon fill="white" stroke="#666666" points="1061.5,-79.5 985.5,-79.5 985.5,-60.5 1061.5,-60.5 1061.5,-79.5"/>
<text text-anchor="middle" x="1023.5" y="-67.5" font-family="Helvetica,sans-Serif" font-size="10.00">NDData.hpp</text>
</a>
</g>
</g>
<!-- Node10&#45;&gt;Node11 -->
<g id="edge10_Node000010_Node000011" class="edge">
<title>Node10&#45;&gt;Node11</title>
<g id="a_edge10_Node000010_Node000011"><a xlink:title=" ">
<path fill="none" stroke="#63b8ff" d="M913.44,-120.95C937.95,-109.83 971.89,-94.42 995.58,-83.67"/>
<polygon fill="#63b8ff" stroke="#63b8ff" points="997.08,-86.84 1004.74,-79.52 994.18,-80.46 997.08,-86.84"/>
</a>
</g>
</g>
<!-- Node12 -->
<g id="Node000012" class="node">
<title>Node12</title>
<g id="a_Node000012"><a xlink:title=" ">
<polygon fill="#e0e0e0" stroke="#999999" points="1110.5,-19 1032.5,-19 1032.5,0 1110.5,0 1110.5,-19"/>
<text text-anchor="middle" x="1071.5" y="-7" font-family="Helvetica,sans-Serif" font-size="10.00">glm/glm.hpp</text>
</a>
</g>
</g>
<!-- Node11&#45;&gt;Node12 -->
<g id="edge11_Node000011_Node000012" class="edge">
<title>Node11&#45;&gt;Node12</title>
<g id="a_edge11_Node000011_Node000012"><a xlink:title=" ">
<path fill="none" stroke="#63b8ff" d="M1030.58,-60.37C1037.74,-51.64 1048.99,-37.93 1057.89,-27.09"/>
<polygon fill="#63b8ff" stroke="#63b8ff" points="1060.75,-29.12 1064.39,-19.17 1055.34,-24.68 1060.75,-29.12"/>
</a>
</g>
</g>
<!-- Node13 -->
<g id="Node000013" class="node">
<title>Node13</title>
<g id="a_Node000013"><a xlink:title=" ">
<polygon fill="#e0e0e0" stroke="#999999" points="1241,-19 1176,-19 1176,0 1241,0 1241,-19"/>
<text text-anchor="middle" x="1208.5" y="-7" font-family="Helvetica,sans-Serif" font-size="10.00">typeindex</text>
</a>
</g>
</g>
<!-- Node11&#45;&gt;Node13 -->
<g id="edge12_Node000011_Node000013" class="edge">
<title>Node11&#45;&gt;Node13</title>
<g id="a_edge12_Node000011_Node000013"><a xlink:title=" ">
<path fill="none" stroke="#63b8ff" d="M1050.4,-60.49C1082.46,-50.36 1136.18,-33.37 1171.98,-22.05"/>
<polygon fill="#63b8ff" stroke="#63b8ff" points="1173.09,-25.37 1181.57,-19.02 1170.98,-18.69 1173.09,-25.37"/>
</a>
</g>
</g>
<!-- Node14&#45;&gt;Node10 -->
<g id="edge16_Node000014_Node000010" class="edge">
<title>Node14&#45;&gt;Node10</title>
<g id="a_edge16_Node000014_Node000010"><a xlink:title=" ">
<path fill="none" stroke="#63b8ff" d="M939.87,-252.99C956.59,-236.9 978.39,-209.81 965.5,-187 957.97,-173.67 945.3,-163.5 932.11,-155.93"/>
<polygon fill="#63b8ff" stroke="#63b8ff" points="933.42,-152.66 922.94,-151.09 930.15,-158.85 933.42,-152.66"/>
</a>
</g>
</g>
<!-- Node15 -->
<g id="Node000015" class="node">
<title>Node15</title>
<g id="a_Node000015"><a xlink:title=" ">
<polygon fill="#e0e0e0" stroke="#999999" points="956,-211.5 851,-211.5 851,-192.5 956,-192.5 956,-211.5"/>
<text text-anchor="middle" x="903.5" y="-199.5" font-family="Helvetica,sans-Serif" font-size="10.00">vulkan/vulkan.hpp</text>
</a>
</g>
</g>
<!-- Node14&#45;&gt;Node15 -->
<g id="edge14_Node000014_Node000015" class="edge">
<title>Node14&#45;&gt;Node15</title>
<g id="a_edge14_Node000014_Node000015"><a xlink:title=" ">
<path fill="none" stroke="#63b8ff" d="M919.06,-252.8C916.19,-243.6 912.42,-231.53 909.31,-221.58"/>
<polygon fill="#63b8ff" stroke="#63b8ff" points="912.59,-220.35 906.26,-211.84 905.91,-222.43 912.59,-220.35"/>
</a>
</g>
</g>
<!-- Node16 -->
<g id="Node000016" class="node">
<title>Node16</title>
<g id="a_Node000016"><a xlink:href="GraphicsUtils_8hpp.html" target="_top" xlink:title=" ">
<polygon fill="white" stroke="#666666" points="833,-211.5 730,-211.5 730,-192.5 833,-192.5 833,-211.5"/>
<text text-anchor="middle" x="781.5" y="-199.5" font-family="Helvetica,sans-Serif" font-size="10.00">GraphicsUtils.hpp</text>
</a>
</g>
</g>
<!-- Node14&#45;&gt;Node16 -->
<g id="edge15_Node000014_Node000016" class="edge">
<title>Node14&#45;&gt;Node16</title>
<g id="a_edge15_Node000014_Node000016"><a xlink:title=" ">
<path fill="none" stroke="#63b8ff" d="M892.34,-252.95C867.65,-241.83 833.47,-226.42 809.62,-215.67"/>
<polygon fill="#63b8ff" stroke="#63b8ff" points="810.95,-212.44 800.4,-211.52 808.08,-218.82 810.95,-212.44"/>
</a>
</g>
</g>
<!-- Node17&#45;&gt;Node11 -->
<g id="edge18_Node000017_Node000011" class="edge">
<title>Node17&#45;&gt;Node11</title>
<g id="a_edge18_Node000017_Node000011"><a xlink:title=" ">
<path fill="none" stroke="#63b8ff" d="M527.92,-384.98C520.25,-338.25 502.89,-187.07 585.5,-121 644.6,-73.74 873.75,-69.66 974.97,-70.25"/>
<polygon fill="#63b8ff" stroke="#63b8ff" points="975.2,-73.75 985.22,-70.33 975.25,-66.75 975.2,-73.75"/>
</a>
</g>
</g>
<!-- Node18 -->
<g id="Node000018" class="node">
<title>Node18</title>
<g id="a_Node000018"><a xlink:title=" ">
<polygon fill="#e0e0e0" stroke="#999999" points="502,-343.5 385,-343.5 385,-324.5 502,-324.5 502,-343.5"/>
<text text-anchor="middle" x="443.5" y="-331.5" font-family="Helvetica,sans-Serif" font-size="10.00">glm/gtc/type_ptr.hpp</text>
</a>
</g>
</g>
<!-- Node17&#45;&gt;Node18 -->
<g id="edge19_Node000017_Node000018" class="edge">
<title>Node17&#45;&gt;Node18</title>
<g id="a_edge19_Node000017_Node000018"><a xlink:title=" ">
<path fill="none" stroke="#63b8ff" d="M511.19,-384.8C497.01,-374.37 477.81,-360.24 463.48,-349.69"/>
<polygon fill="#63b8ff" stroke="#63b8ff" points="465.4,-346.76 455.27,-343.66 461.25,-352.4 465.4,-346.76"/>
</a>
</g>
</g>
<!-- Node17&#45;&gt;Node19 -->
<g id="edge20_Node000017_Node000019" class="edge">
<title>Node17&#45;&gt;Node19</title>
<g id="a_edge20_Node000017_Node000019"><a xlink:title=" ">
<path fill="none" stroke="#63b8ff" d="M476.08,-384.95C430.76,-373.26 367.12,-356.84 325.36,-346.06"/>
<polygon fill="#63b8ff" stroke="#63b8ff" points="326.06,-342.63 315.5,-343.52 324.31,-349.41 326.06,-342.63"/>
</a>
</g>
</g>
<!-- Node20 -->
<g id="Node000020" class="node">
<title>Node20</title>
<g id="a_Node000020"><a xlink:href="JournalEntry_8hpp.html" target="_top" xlink:title=" ">
<polygon fill="white" stroke="#666666" points="285,-277.5 190,-277.5 190,-258.5 285,-258.5 285,-277.5"/>
<text text-anchor="middle" x="237.5" y="-265.5" font-family="Helvetica,sans-Serif" font-size="10.00">JournalEntry.hpp</text>
</a>
</g>
</g>
<!-- Node19&#45;&gt;Node20 -->
<g id="edge21_Node000019_Node000020" class="edge">
<title>Node19&#45;&gt;Node20</title>
<g id="a_edge21_Node000019_Node000020"><a xlink:title=" ">
<path fill="none" stroke="#63b8ff" d="M276.43,-324.37C269.63,-314.69 258.41,-298.74 249.76,-286.44"/>
<polygon fill="#63b8ff" stroke="#63b8ff" points="252.38,-284.07 243.76,-277.91 246.65,-288.1 252.38,-284.07"/>
</a>
</g>
</g>
<!-- Node25 -->
<g id="Node000025" class="node">
<title>Node25</title>
<g id="a_Node000025"><a xlink:title=" ">
<polygon fill="#e0e0e0" stroke="#999999" points="353.5,-277.5 303.5,-277.5 303.5,-258.5 353.5,-258.5 353.5,-277.5"/>
<text text-anchor="middle" x="328.5" y="-265.5" font-family="Helvetica,sans-Serif" font-size="10.00">format</text>
</a>
</g>
</g>
<!-- Node19&#45;&gt;Node25 -->
<g id="edge26_Node000019_Node000025" class="edge">
<title>Node19&#45;&gt;Node25</title>
<g id="a_edge26_Node000019_Node000025"><a xlink:title=" ">
<path fill="none" stroke="#63b8ff" d="M288.7,-324.37C295.73,-314.59 307.35,-298.42 316.23,-286.08"/>
<polygon fill="#63b8ff" stroke="#63b8ff" points="319.11,-288.07 322.1,-277.91 313.42,-283.98 319.11,-288.07"/>
</a>
</g>
</g>
<!-- Node21 -->
<g id="Node000021" class="node">
<title>Node21</title>
<g id="a_Node000021"><a xlink:href="EnumReflect_8hpp.html" target="_top" xlink:title=" ">
<polygon fill="white" stroke="#666666" points="230,-217 91,-217 91,-187 230,-187 230,-217"/>
<text text-anchor="start" x="99" y="-205" font-family="Helvetica,sans-Serif" font-size="10.00">MayaFlux/Transitive</text>
<text text-anchor="middle" x="160.5" y="-194" font-family="Helvetica,sans-Serif" font-size="10.00">/Reflect/EnumReflect.hpp</text>
</a>
</g>
</g>
<!-- Node20&#45;&gt;Node21 -->
<g id="edge22_Node000020_Node000021" class="edge">
<title>Node20&#45;&gt;Node21</title>
<g id="a_edge22_Node000020_Node000021"><a xlink:title=" ">
<path fill="none" stroke="#63b8ff" d="M227.12,-258.37C216.48,-249.53 199.54,-235.45 185.41,-223.71"/>
<polygon fill="#63b8ff" stroke="#63b8ff" points="187.41,-220.82 177.48,-217.12 182.94,-226.2 187.41,-220.82"/>
</a>
</g>
</g>
<!-- Node22 -->
<g id="Node000022" class="node">
<title>Node22</title>
<g id="a_Node000022"><a xlink:title=" ">
<polygon fill="#e0e0e0" stroke="#999999" points="298.5,-211.5 248.5,-211.5 248.5,-192.5 298.5,-192.5 298.5,-211.5"/>
<text text-anchor="middle" x="273.5" y="-199.5" font-family="Helvetica,sans-Serif" font-size="10.00">chrono</text>
</a>
</g>
</g>
<!-- Node20&#45;&gt;Node22 -->
<g id="edge23_Node000020_Node000022" class="edge">
<title>Node20&#45;&gt;Node22</title>
<g id="a_edge23_Node000020_Node000022"><a xlink:title=" ">
<path fill="none" stroke="#63b8ff" d="M242.36,-258.37C247.75,-248.78 256.6,-233.05 263.49,-220.8"/>
<polygon fill="#63b8ff" stroke="#63b8ff" points="266.64,-222.34 268.49,-211.91 260.54,-218.91 266.64,-222.34"/>
</a>
</g>
</g>
<!-- Node23 -->
<g id="Node000023" class="node">
<title>Node23</title>
<g id="a_Node000023"><a xlink:title=" ">
<polygon fill="#e0e0e0" stroke="#999999" points="410,-211.5 317,-211.5 317,-192.5 410,-192.5 410,-211.5"/>
<text text-anchor="middle" x="363.5" y="-199.5" font-family="Helvetica,sans-Serif" font-size="10.00">source_location</text>
</a>
</g>
</g>
<!-- Node20&#45;&gt;Node23 -->
<g id="edge24_Node000020_Node000023" class="edge">
<title>Node20&#45;&gt;Node23</title>
<g id="a_edge24_Node000020_Node000023"><a xlink:title=" ">
<path fill="none" stroke="#63b8ff" d="M254.49,-258.37C275.72,-247.59 312.28,-229.02 337.15,-216.38"/>
<polygon fill="#63b8ff" stroke="#63b8ff" points="339.04,-219.35 346.37,-211.7 335.87,-213.11 339.04,-219.35"/>
</a>
</g>
</g>
<!-- Node24 -->
<g id="Node000024" class="node">
<title>Node24</title>
<g id="a_Node000024"><a xlink:title=" ">
<polygon fill="#e0e0e0" stroke="#999999" points="73,-211.5 0,-211.5 0,-192.5 73,-192.5 73,-211.5"/>
<text text-anchor="middle" x="36.5" y="-199.5" font-family="Helvetica,sans-Serif" font-size="10.00">string_view</text>
</a>
</g>
</g>
<!-- Node20&#45;&gt;Node24 -->
<g id="edge25_Node000020_Node000024" class="edge">
<title>Node20&#45;&gt;Node24</title>
<g id="a_edge25_Node000020_Node000024"><a xlink:title=" ">
<path fill="none" stroke="#63b8ff" d="M210.39,-258.37C174.93,-247.08 112.66,-227.25 73.05,-214.64"/>
<polygon fill="#63b8ff" stroke="#63b8ff" points="74.09,-211.3 63.5,-211.6 71.97,-217.97 74.09,-211.3"/>
</a>
</g>
</g>
<!-- Node27 -->
<g id="Node000027" class="node">
<title>Node27</title>
<g id="a_Node000027"><a xlink:href="ShaderFoundry_8hpp.html" target="_top" xlink:title=" ">
<polygon fill="white" stroke="#666666" points="978,-343.5 869,-343.5 869,-324.5 978,-324.5 978,-343.5"/>
<text text-anchor="middle" x="923.5" y="-331.5" font-family="Helvetica,sans-Serif" font-size="10.00">ShaderFoundry.hpp</text>
</a>
</g>
</g>
<!-- Node26&#45;&gt;Node27 -->
<g id="edge28_Node000026_Node000027" class="edge">
<title>Node26&#45;&gt;Node27</title>
<g id="a_edge28_Node000026_Node000027"><a xlink:title=" ">
<path fill="none" stroke="#63b8ff" d="M896.77,-450.84C902.22,-427.23 913.15,-379.83 919.21,-353.58"/>
<polygon fill="#63b8ff" stroke="#63b8ff" points="922.64,-354.28 921.48,-343.75 915.82,-352.71 922.64,-354.28"/>
</a>
</g>
</g>
<!-- Node27&#45;&gt;Node14 -->
<g id="edge29_Node000027_Node000014" class="edge">
<title>Node27&#45;&gt;Node14</title>
<g id="a_edge29_Node000027_Node000014"><a xlink:title=" ">
<path fill="none" stroke="#63b8ff" d="M923.5,-324.37C923.5,-316.49 923.5,-304.45 923.5,-293.6"/>
<polygon fill="#63b8ff" stroke="#63b8ff" points="927,-293.36 923.5,-283.36 920,-293.36 927,-293.36"/>
</a>
</g>
</g>
<!-- Node28 -->
<g id="Node000028" class="node">
<title>Node28</title>
<g id="a_Node000028"><a xlink:href="ShaderSpec_8hpp.html" target="_top" xlink:title=" ">
<polygon fill="white" stroke="#666666" points="1071,-145.5 976,-145.5 976,-126.5 1071,-126.5 1071,-145.5"/>
<text text-anchor="middle" x="1023.5" y="-133.5" font-family="Helvetica,sans-Serif" font-size="10.00">ShaderSpec.hpp</text>
</a>
</g>
</g>
<!-- Node27&#45;&gt;Node28 -->
<g id="edge30_Node000027_Node000028" class="edge">
<title>Node27&#45;&gt;Node28</title>
<g id="a_edge30_Node000027_Node000028"><a xlink:title=" ">
<path fill="none" stroke="#63b8ff" d="M947.92,-324.36C966.32,-316.52 990.51,-303.08 1003.5,-283 1029.02,-243.55 1028.22,-185.58 1025.73,-155.95"/>
<polygon fill="#63b8ff" stroke="#63b8ff" points="1029.18,-155.36 1024.7,-145.76 1022.22,-156.06 1029.18,-155.36"/>
</a>
</g>
</g>
<!-- Node28&#45;&gt;Node11 -->
<g id="edge31_Node000028_Node000011" class="edge">
<title>Node28&#45;&gt;Node11</title>
<g id="a_edge31_Node000028_Node000011"><a xlink:title=" ">
<path fill="none" stroke="#63b8ff" d="M1023.5,-126.37C1023.5,-117.16 1023.5,-102.29 1023.5,-90.27"/>
<polygon fill="#63b8ff" stroke="#63b8ff" points="1027,-89.91 1023.5,-79.91 1020,-89.91 1027,-89.91"/>
</a>
</g>
</g>
<!-- Node30 -->
<g id="Node000030" class="node">
<title>Node30</title>
<g id="a_Node000030"><a xlink:href="Element_8hpp.html" target="_top" xlink:title=" ">
<polygon fill="white" stroke="#666666" points="1112.5,-481 982.5,-481 982.5,-451 1112.5,-451 1112.5,-481"/>
<text text-anchor="start" x="990.5" y="-469" font-family="Helvetica,sans-Serif" font-size="10.00">MayaFlux/Portal/Forma</text>
<text text-anchor="middle" x="1047.5" y="-458" font-family="Helvetica,sans-Serif" font-size="10.00">/Element.hpp</text>
</a>
</g>
</g>
<!-- Node29&#45;&gt;Node30 -->
<g id="edge33_Node000029_Node000030" class="edge">
<title>Node29&#45;&gt;Node30</title>
<g id="a_edge33_Node000029_Node000030"><a xlink:title=" ">
<path fill="none" stroke="#63b8ff" d="M1028.05,-516.8C1031.06,-509.09 1034.86,-499.37 1038.3,-490.56"/>
<polygon fill="#63b8ff" stroke="#63b8ff" points="1041.59,-491.75 1041.97,-481.16 1035.07,-489.21 1041.59,-491.75"/>
</a>
</g>
</g>
<!-- Node31 -->
<g id="Node000031" class="node">
<title>Node31</title>
<g id="a_Node000031"><a xlink:href="FormaBuffer_8hpp.html" target="_top" xlink:title=" ">
<polygon fill="white" stroke="#666666" points="1073.5,-415 937.5,-415 937.5,-385 1073.5,-385 1073.5,-415"/>
<text text-anchor="start" x="945.5" y="-403" font-family="Helvetica,sans-Serif" font-size="10.00">MayaFlux/Buffers/Forma</text>
<text text-anchor="middle" x="1005.5" y="-392" font-family="Helvetica,sans-Serif" font-size="10.00">/FormaBuffer.hpp</text>
</a>
</g>
</g>
<!-- Node30&#45;&gt;Node31 -->
<g id="edge34_Node000030_Node000031" class="edge">
<title>Node30&#45;&gt;Node31</title>
<g id="a_edge34_Node000030_Node000031"><a xlink:title=" ">
<path fill="none" stroke="#63b8ff" d="M1038.18,-450.8C1032.96,-442.84 1026.33,-432.74 1020.4,-423.71"/>
<polygon fill="#63b8ff" stroke="#63b8ff" points="1023.21,-421.6 1014.8,-415.16 1017.36,-425.44 1023.21,-421.6"/>
</a>
</g>
</g>
<!-- Node32 -->
<g id="Node000032" class="node">
<title>Node32</title>
<g id="a_Node000032"><a xlink:href="Bounds_8hpp.html" target="_top" xlink:title=" ">
<polygon fill="white" stroke="#666666" points="1237.5,-415 1097.5,-415 1097.5,-385 1237.5,-385 1237.5,-415"/>
<text text-anchor="start" x="1105.5" y="-403" font-family="Helvetica,sans-Serif" font-size="10.00">MayaFlux/Kinesis/Spatial</text>
<text text-anchor="middle" x="1167.5" y="-392" font-family="Helvetica,sans-Serif" font-size="10.00">/Bounds.hpp</text>
</a>
</g>
</g>
<!-- Node30&#45;&gt;Node32 -->
<g id="edge36_Node000030_Node000032" class="edge">
<title>Node30&#45;&gt;Node32</title>
<g id="a_edge36_Node000030_Node000032"><a xlink:title=" ">
<path fill="none" stroke="#63b8ff" d="M1073.83,-450.95C1091.03,-441.78 1113.68,-429.71 1132.39,-419.72"/>
<polygon fill="#63b8ff" stroke="#63b8ff" points="1134.05,-422.81 1141.23,-415.01 1130.76,-416.63 1134.05,-422.81"/>
</a>
</g>
</g>
<!-- Node31&#45;&gt;Node5 -->
<g id="edge35_Node000031_Node000005" class="edge">
<title>Node31&#45;&gt;Node5</title>
<g id="a_edge35_Node000031_Node000005"><a xlink:title=" ">
<path fill="none" stroke="#63b8ff" d="M945.81,-384.95C895.8,-373.19 825.43,-356.63 779.64,-345.86"/>
<polygon fill="#63b8ff" stroke="#63b8ff" points="780.23,-342.4 769.7,-343.52 778.63,-349.21 780.23,-342.4"/>
</a>
</g>
</g>
<!-- Node33 -->
<g id="Node000033" class="node">
<title>Node33</title>
<g id="a_Node000033"><a xlink:href="HitTest_8hpp.html" target="_top" xlink:title=" ">
<polygon fill="white" stroke="#666666" points="1241.5,-349 1101.5,-349 1101.5,-319 1241.5,-319 1241.5,-349"/>
<text text-anchor="start" x="1109.5" y="-337" font-family="Helvetica,sans-Serif" font-size="10.00">MayaFlux/Kinesis/Spatial</text>
<text text-anchor="middle" x="1171.5" y="-326" font-family="Helvetica,sans-Serif" font-size="10.00">/HitTest.hpp</text>
</a>
</g>
</g>
<!-- Node32&#45;&gt;Node33 -->
<g id="edge37_Node000032_Node000033" class="edge">
<title>Node32&#45;&gt;Node33</title>
<g id="a_edge37_Node000032_Node000033"><a xlink:title=" ">
<path fill="none" stroke="#63b8ff" d="M1168.39,-384.8C1168.85,-377.34 1169.44,-367.99 1169.97,-359.41"/>
<polygon fill="#63b8ff" stroke="#63b8ff" points="1173.48,-359.36 1170.61,-349.16 1166.5,-358.93 1173.48,-359.36"/>
</a>
</g>
</g>
<!-- Node34 -->
<g id="Node000034" class="node">
<title>Node34</title>
<g id="a_Node000034"><a xlink:href="SpatialIndex_8hpp.html" target="_top" xlink:title=" ">
<polygon fill="white" stroke="#666666" points="1220.5,-277.5 1122.5,-277.5 1122.5,-258.5 1220.5,-258.5 1220.5,-277.5"/>
<text text-anchor="middle" x="1171.5" y="-265.5" font-family="Helvetica,sans-Serif" font-size="10.00">SpatialIndex.hpp</text>
</a>
</g>
</g>
<!-- Node33&#45;&gt;Node34 -->
<g id="edge38_Node000033_Node000034" class="edge">
<title>Node33&#45;&gt;Node34</title>
<g id="a_edge38_Node000033_Node000034"><a xlink:title=" ">
<path fill="none" stroke="#63b8ff" d="M1171.5,-318.8C1171.5,-309.7 1171.5,-297.79 1171.5,-287.9"/>
<polygon fill="#63b8ff" stroke="#63b8ff" points="1175,-287.84 1171.5,-277.84 1168,-287.84 1175,-287.84"/>
</a>
</g>
</g>
<!-- Node38 -->
<g id="Node000038" class="node">
<title>Node38</title>
<g id="a_Node000038"><a xlink:href="ViewTransform_8hpp.html" target="_top" xlink:title=" ">
<polygon fill="white" stroke="#666666" points="1439,-283 1290,-283 1290,-253 1439,-253 1439,-283"/>
<text text-anchor="start" x="1298" y="-271" font-family="Helvetica,sans-Serif" font-size="10.00">MayaFlux/Kinesis/Viewport</text>
<text text-anchor="middle" x="1364.5" y="-260" font-family="Helvetica,sans-Serif" font-size="10.00">/ViewTransform.hpp</text>
</a>
</g>
</g>
<!-- Node33&#45;&gt;Node38 -->
<g id="edge43_Node000033_Node000038" class="edge">
<title>Node33&#45;&gt;Node38</title>
<g id="a_edge43_Node000033_Node000038"><a xlink:title=" ">
<path fill="none" stroke="#63b8ff" d="M1213.85,-318.95C1242.89,-309.33 1281.6,-296.49 1312.51,-286.24"/>
<polygon fill="#63b8ff" stroke="#63b8ff" points="1313.85,-289.48 1322.24,-283.01 1311.65,-282.84 1313.85,-289.48"/>
</a>
</g>
</g>
<!-- Node35 -->
<g id="Node000035" class="node">
<title>Node35</title>
<g id="a_Node000035"><a xlink:href="TendencyFactories_8hpp.html" target="_top" xlink:title=" ">
<polygon fill="white" stroke="#666666" points="1202.5,-217 1050.5,-217 1050.5,-187 1202.5,-187 1202.5,-217"/>
<text text-anchor="start" x="1058.5" y="-205" font-family="Helvetica,sans-Serif" font-size="10.00">MayaFlux/Kinesis/Tendency</text>
<text text-anchor="middle" x="1126.5" y="-194" font-family="Helvetica,sans-Serif" font-size="10.00">/TendencyFactories.hpp</text>
</a>
</g>
</g>
<!-- Node34&#45;&gt;Node35 -->
<g id="edge39_Node000034_Node000035" class="edge">
<title>Node34&#45;&gt;Node35</title>
<g id="a_edge39_Node000034_Node000035"><a xlink:title=" ">
<path fill="none" stroke="#63b8ff" d="M1165.43,-258.37C1159.54,-249.99 1150.35,-236.93 1142.38,-225.59"/>
<polygon fill="#63b8ff" stroke="#63b8ff" points="1145.21,-223.53 1136.6,-217.36 1139.49,-227.55 1145.21,-223.53"/>
</a>
</g>
</g>
<!-- Node37 -->
<g id="Node000037" class="node">
<title>Node37</title>
<g id="a_Node000037"><a xlink:title=" ">
<polygon fill="#e0e0e0" stroke="#999999" points="1290,-211.5 1221,-211.5 1221,-192.5 1290,-192.5 1290,-211.5"/>
<text text-anchor="middle" x="1255.5" y="-199.5" font-family="Helvetica,sans-Serif" font-size="10.00">Eigen/Core</text>
</a>
</g>
</g>
<!-- Node34&#45;&gt;Node37 -->
<g id="edge42_Node000034_Node000037" class="edge">
<title>Node34&#45;&gt;Node37</title>
<g id="a_edge42_Node000034_Node000037"><a xlink:title=" ">
<path fill="none" stroke="#63b8ff" d="M1182.83,-258.37C1196.36,-248.06 1219.22,-230.65 1235.69,-218.09"/>
<polygon fill="#63b8ff" stroke="#63b8ff" points="1238.25,-220.54 1244.08,-211.7 1234.01,-214.98 1238.25,-220.54"/>
</a>
</g>
</g>
<!-- Node36 -->
<g id="Node000036" class="node">
<title>Node36</title>
<g id="a_Node000036"><a xlink:href="Tendency_8hpp.html" target="_top" xlink:title=" ">
<polygon fill="white" stroke="#666666" points="1163.5,-79.5 1081.5,-79.5 1081.5,-60.5 1163.5,-60.5 1163.5,-79.5"/>
<text text-anchor="middle" x="1122.5" y="-67.5" font-family="Helvetica,sans-Serif" font-size="10.00">Tendency.hpp</text>
</a>
</g>
</g>
<!-- Node35&#45;&gt;Node36 -->
<g id="edge40_Node000035_Node000036" class="edge">
<title>Node35&#45;&gt;Node36</title>
<g id="a_edge40_Node000035_Node000036"><a xlink:title=" ">
<path fill="none" stroke="#63b8ff" d="M1126.06,-186.84C1125.34,-163.34 1123.89,-116.26 1123.08,-89.93"/>
<polygon fill="#63b8ff" stroke="#63b8ff" points="1126.58,-89.64 1122.77,-79.75 1119.58,-89.85 1126.58,-89.64"/>
</a>
</g>
</g>
<!-- Node36&#45;&gt;Node12 -->
<g id="edge41_Node000036_Node000012" class="edge">
<title>Node36&#45;&gt;Node12</title>
<g id="a_edge41_Node000036_Node000012"><a xlink:title=" ">
<path fill="none" stroke="#63b8ff" d="M1114.97,-60.37C1107.29,-51.55 1095.18,-37.66 1085.69,-26.77"/>
<polygon fill="#63b8ff" stroke="#63b8ff" points="1088.27,-24.41 1079.06,-19.17 1082.99,-29.01 1088.27,-24.41"/>
</a>
</g>
</g>
<!-- Node39 -->
<g id="Node000039" class="node">
<title>Node39</title>
<g id="a_Node000039"><a xlink:title=" ">
<polygon fill="#e0e0e0" stroke="#999999" points="1471,-211.5 1308,-211.5 1308,-192.5 1471,-192.5 1471,-211.5"/>
<text text-anchor="middle" x="1389.5" y="-199.5" font-family="Helvetica,sans-Serif" font-size="10.00">glm/gtc/matrix_transform.hpp</text>
</a>
</g>
</g>
<!-- Node38&#45;&gt;Node39 -->
<g id="edge44_Node000038_Node000039" class="edge">
<title>Node38&#45;&gt;Node39</title>
<g id="a_edge44_Node000038_Node000039"><a xlink:title=" ">
<path fill="none" stroke="#63b8ff" d="M1370.05,-252.8C1373.68,-243.5 1378.46,-231.27 1382.37,-221.26"/>
<polygon fill="#63b8ff" stroke="#63b8ff" points="1385.67,-222.43 1386.05,-211.84 1379.15,-219.89 1385.67,-222.43"/>
</a>
</g>
</g>
<!-- Node40&#45;&gt;Node13 -->
<g id="edge50_Node000040_Node000013" class="edge">
<title>Node40&#45;&gt;Node13</title>
<g id="a_edge50_Node000040_Node000013"><a xlink:title=" ">
<path fill="none" stroke="#63b8ff" d="M1337.78,-54.99C1308.91,-45.05 1270.59,-31.86 1243.17,-22.43"/>
<polygon fill="#63b8ff" stroke="#63b8ff" points="1244.2,-19.08 1233.61,-19.14 1241.92,-25.7 1244.2,-19.08"/>
</a>
</g>
</g>
</g>
</svg>
