<?xml version="1.0" encoding="UTF-8" standalone="no"?>
<!DOCTYPE svg PUBLIC "-//W3C//DTD SVG 1.1//EN"
 "http://www.w3.org/Graphics/SVG/1.1/DTD/svg11.dtd">
<!-- Generated by graphviz version 2.43.0 (0)
 -->
<!-- Title: MayaFlux::Kakshya::VertexLayout::for_raw Pages: 1 -->
<svg width="287pt" height="157pt"
 viewBox="0.00 0.00 287.00 156.50" xmlns="http://www.w3.org/2000/svg" xmlns:xlink="http://www.w3.org/1999/xlink">
<g id="graph0" class="graph" transform="scale(1 1) rotate(0) translate(4 152.5)">
<title>MayaFlux::Kakshya::VertexLayout::for_raw</title>
<!-- Node1 -->
<g id="Node000001" class="node">
<title>Node1</title>
<g id="a_Node000001"><a xlink:title="Factory: layout for raw vertex data with common attributes.">
<polygon fill="#999999" stroke="#666666" points="279,-84 155,-84 155,-54 279,-54 279,-84"/>
<text text-anchor="start" x="163" y="-72" font-family="Helvetica,sans-Serif" font-size="10.00">MayaFlux::Kakshya::</text>
<text text-anchor="middle" x="217" y="-61" font-family="Helvetica,sans-Serif" font-size="10.00">VertexLayout::for_raw</text>
</a>
</g>
</g>
<!-- Node2 -->
<g id="Node000002" class="node">
<title>Node2</title>
<g id="a_Node000002"><a xlink:href="classMayaFlux_1_1Buffers_1_1DataWriteProcessor_aca8cf954a0c10aad3ed46ee95c2705d2.html#aca8cf954a0c10aad3ed46ee95c2705d2" target="_top" xlink:title="Called when this processor is attached to a buffer.">
<polygon fill="white" stroke="#666666" points="119,-148.5 0,-148.5 0,-107.5 119,-107.5 119,-148.5"/>
<text text-anchor="start" x="8" y="-136.5" font-family="Helvetica,sans-Serif" font-size="10.00">MayaFlux::Buffers::</text>
<text text-anchor="start" x="8" y="-125.5" font-family="Helvetica,sans-Serif" font-size="10.00">DataWriteProcessor::</text>
<text text-anchor="middle" x="59.5" y="-114.5" font-family="Helvetica,sans-Serif" font-size="10.00">on_attach</text>
</a>
</g>
</g>
<!-- Node1&#45;&gt;Node2 -->
<g id="edge1_Node000001_Node000002" class="edge">
<title>Node1&#45;&gt;Node2</title>
<g id="a_edge1_Node000001_Node000002"><a xlink:title=" ">
<path fill="none" stroke="#63b8ff" d="M166.86,-87.65C150.28,-93.94 131.69,-100.99 114.74,-107.42"/>
<polygon fill="#63b8ff" stroke="#63b8ff" points="168.25,-90.86 176.36,-84.04 165.77,-84.32 168.25,-90.86"/>
</a>
</g>
</g>
<!-- Node3 -->
<g id="Node000003" class="node">
<title>Node3</title>
<g id="a_Node000003"><a xlink:href="classMayaFlux_1_1Buffers_1_1RelaxationGridBuffer_a4c90a977c6dcb7edf0abced15bc7d798.html#a4c90a977c6dcb7edf0abced15bc7d798" target="_top" xlink:title="Create and attach RelaxationStepProcessor (default processor) and RelaxationEmitProcessor (flat proce...">
<polygon fill="white" stroke="#666666" points="119,-89.5 0,-89.5 0,-48.5 119,-48.5 119,-89.5"/>
<text text-anchor="start" x="8" y="-77.5" font-family="Helvetica,sans-Serif" font-size="10.00">MayaFlux::Buffers::</text>
<text text-anchor="start" x="8" y="-66.5" font-family="Helvetica,sans-Serif" font-size="10.00">RelaxationGridBuffer</text>
<text text-anchor="middle" x="59.5" y="-55.5" font-family="Helvetica,sans-Serif" font-size="10.00">::setup_processors</text>
</a>
</g>
</g>
<!-- Node1&#45;&gt;Node3 -->
<g id="edge2_Node000001_Node000003" class="edge">
<title>Node1&#45;&gt;Node3</title>
<g id="a_edge2_Node000001_Node000003"><a xlink:title=" ">
<path fill="none" stroke="#63b8ff" d="M144.91,-69C136.25,-69 127.49,-69 119.05,-69"/>
<polygon fill="#63b8ff" stroke="#63b8ff" points="144.99,-72.5 154.99,-69 144.99,-65.5 144.99,-72.5"/>
</a>
</g>
</g>
<!-- Node4 -->
<g id="Node000004" class="node">
<title>Node4</title>
<g id="a_Node000004"><a xlink:href="namespaceMayaFlux_1_1Kakshya_a669ad32b77cbaaba65566c05bfb277c3.html#a669ad32b77cbaaba65566c05bfb277c3" target="_top" xlink:title="Deduce a VertexLayout from a vertex struct type.">
<polygon fill="white" stroke="#666666" points="119,-30 0,-30 0,0 119,0 119,-30"/>
<text text-anchor="start" x="8" y="-18" font-family="Helvetica,sans-Serif" font-size="10.00">MayaFlux::Kakshya::</text>
<text text-anchor="middle" x="59.5" y="-7" font-family="Helvetica,sans-Serif" font-size="10.00">vertex_layout_for</text>
</a>
</g>
</g>
<!-- Node1&#45;&gt;Node4 -->
<g id="edge3_Node000001_Node000004" class="edge">
<title>Node1&#45;&gt;Node4</title>
<g id="a_edge3_Node000001_Node000004"><a xlink:title=" ">
<path fill="none" stroke="#63b8ff" d="M163.12,-50.64C143.82,-43.93 122.23,-36.44 103.85,-30.05"/>
<polygon fill="#63b8ff" stroke="#63b8ff" points="162.09,-53.98 172.68,-53.96 164.39,-47.37 162.09,-53.98"/>
</a>
</g>
</g>
</g>
</svg>
